<svg xmlns="http://www.w3.org/2000/svg" width="270.45" height="239.215" viewBox="0 0 270.45 239.215">
  <g id="_507_data_analyst_flatline" data-name="#507_data_analyst_flatline" transform="translate(-71.5 -36.47)">
    <path id="Caminho_160" data-name="Caminho 160" d="M258.11,245.4s10.689,16.034,12.471,15.138,24.141-15.929,20.873-17.415-15.043,1.592-15.043,1.592l-8.8-10.542Z" transform="translate(10.111 10.712)" fill="#fff"/>
    <path id="Caminho_161" data-name="Caminho 161" d="M270.546,261.1c-2.108,0-8.1-8.254-12.85-15.38a.527.527,0,0,1,0-.633l9.488-11.28a.517.517,0,0,1,.8,0l8.592,10.331c1.982-.5,11.954-2.888,15.075-1.465a1.054,1.054,0,0,1,.633.938c.063,3.5-20.535,16.951-21.495,17.426a.676.676,0,0,1-.242.063Zm-11.754-15.633c4.712,7.031,10.447,14.537,11.6,14.611.685-.369,6.04-3.869,11.269-7.748,9.561-7.074,9.593-8.56,9.572-8.708-2.562-1.149-11.48.78-14.706,1.623a.517.517,0,0,1-.538-.179l-8.433-10.1Z" transform="translate(10.082 10.682)" fill="#231f20"/>
    <path id="Caminho_162" data-name="Caminho 162" d="M223.4,241.44s-5.05,18.9-3.669,20.483,34.039,3.163,32.848,1.392-16.551-11.68-16.551-11.68l1.465-8.855Z" transform="translate(8.018 11.105)" fill="#fff"/>
    <path id="Caminho_163" data-name="Caminho 163" d="M245.5,264.606c-9.582,0-25.089-1.107-26.133-2.309-1.455-1.666,2.34-16.466,3.542-20.968a.538.538,0,0,1,.559-.38l14.1,1.328a.58.58,0,0,1,.369.211.506.506,0,0,1,.095.4l-1.4,8.518c2.53,1.634,15.254,9.9,16.414,11.6a.675.675,0,0,1-.179.938C252.3,264.427,249.39,264.606,245.5,264.606Zm-21.684-22.549c-2.351,8.9-4.343,18.543-3.658,19.576,1.676,1.3,27.894,2.625,31.71,1.676-1.855-1.792-10.394-7.516-16.1-11.185a.506.506,0,0,1-.232-.527l1.37-8.3Z" transform="translate(7.994 11.079)" fill="#231f20"/>
    <rect id="Retângulo_762" data-name="Retângulo 762" width="40.143" height="83.67" transform="translate(172.153 187.587)" fill="#fff"/>
    <path id="Caminho_164" data-name="Caminho 164" d="M207.16,264.034H167.027a.527.527,0,0,1-.527-.527v-83.66a.527.527,0,0,1,.527-.527h40.154a.527.527,0,0,1,.527.527v83.66a.527.527,0,0,1-.548.527Zm-39.627-1.054h39.1V180.374h-39.1Z" transform="translate(5.147 7.74)" fill="#231f20"/>
    <rect id="Retângulo_763" data-name="Retângulo 763" width="40.143" height="104.891" transform="translate(120.825 166.356)" fill="#fff"/>
    <path id="Caminho_165" data-name="Caminho 165" d="M158.46,265.125H118.317a.527.527,0,0,1-.527-.527V159.707a.527.527,0,0,1,.527-.527H158.46a.527.527,0,0,1,.527.527V264.6A.527.527,0,0,1,158.46,265.125Zm-39.616-1.054h39.089V160.234H118.844Z" transform="translate(2.508 6.649)" fill="#231f20"/>
    <rect id="Retângulo_764" data-name="Retângulo 764" width="40.143" height="145.677" transform="translate(71.974 125.569)" fill="#fff"/>
    <path id="Caminho_166" data-name="Caminho 166" d="M112.086,267.221H72.027a.527.527,0,0,1-.527-.527V121.027a.527.527,0,0,1,.527-.527h40.059a.527.527,0,0,1,.527.527V266.694A.527.527,0,0,1,112.086,267.221ZM72.47,266.167h39.089V121.544H72.5Z" transform="translate(0 4.553)" fill="#231f20"/>
    <path id="Caminho_167" data-name="Caminho 167" d="M218.1,161.56l61.849,80.476-18.206,12.344L178.3,161.56Z" transform="translate(5.786 6.777)" fill="#fff"/>
    <path id="Caminho_168" data-name="Caminho 168" d="M261.766,254.935a.527.527,0,0,1-.39-.179l-83.449-92.821a.517.517,0,0,1-.084-.559.538.538,0,0,1,.485-.316h39.8a.517.517,0,0,1,.411.2l61.859,80.476a.569.569,0,0,1,.105.411.506.506,0,0,1-.232.348l-18.206,12.323A.5.5,0,0,1,261.766,254.935ZM179.54,162.114l82.31,91.65,17.362-11.828-61.353-79.823Z" transform="translate(5.759 6.75)" fill="#231f20"/>
    <path id="Caminho_169" data-name="Caminho 169" d="M160.79,163.238s5.471,15.992,11.438,22.528S227.773,210.7,227.773,210.7l-4.512,39.711,22.918,2.435s15.665-43.337,10.352-50.464-63.251-45.33-63.251-45.33Z" transform="translate(4.838 6.533)" fill="#fff"/>
    <path id="Caminho_170" data-name="Caminho 170" d="M246.209,253.4h0l-22.971-2.435a.548.548,0,0,1-.358-.19.527.527,0,0,1-.105-.39l4.459-39.31c-4.986-1.866-49.546-18.606-55.366-24.931-5.967-6.536-11.322-22.053-11.6-22.707a.517.517,0,0,1,0-.432.559.559,0,0,1,.358-.264l32.511-6.178a.538.538,0,0,1,.379.074c2.467,1.571,58.18,38.341,63.451,45.467,2.309,3.089,1.265,12.65-3.1,28.347-3.163,11.6-7.137,22.5-7.179,22.6A.527.527,0,0,1,246.209,253.4Zm-22.328-3.426,21.969,2.33c.727-2.035,4.153-11.8,7.021-22.138,5.271-19.165,4.712-25.5,3.268-27.409-5.06-6.768-59.361-42.736-62.924-45.087l-31.689,6.03c1.054,2.91,5.935,16.087,11.122,21.769,5.819,6.325,54.817,24.615,55.344,24.794a.527.527,0,0,1,.337.559Z" transform="translate(4.807 6.506)" fill="#231f20"/>
    <path id="Caminho_171" data-name="Caminho 171" d="M219.41,107.641s10.415,23.192,12,23.35L237.837,121s.59-6.821,2.372-9.593,3.763-1.982,3.763-1.982,1.76-3.331,3.932-3.721,8.95,3.806,4.976,6.4-16.8,39.679-21.558,40.143c-15.106,1.455-25.838-40.322-25.733-40.449Z" transform="translate(7.265 3.75)" fill="#fff"/>
    <path id="Caminho_172" data-name="Caminho 172" d="M230.544,152.832c-5.809,0-11.6-5.84-17.078-17.394-4.217-8.887-8.887-23.318-8.233-23.983a.475.475,0,0,1,.221-.127l13.831-4.217a.548.548,0,0,1,.632.285c4.48,9.973,9.772,20.852,11.385,22.8l6.04-9.4c.095-.991.738-7.031,2.446-9.7,1.486-2.319,3.163-2.414,3.943-2.3.548-.917,2.108-3.279,4.1-3.637,1.792-.327,5.735,1.824,6.62,4.048a2.562,2.562,0,0,1-1.265,3.3c-1.613,1.054-5.271,9.245-8.75,17.173-6.093,13.757-10.289,22.791-13.061,23.055A7.379,7.379,0,0,1,230.544,152.832Zm-24.32-40.639a136.851,136.851,0,0,0,7.211,20.662c4.048,9.013,10.415,19.618,17.847,18.891,2.361-.232,8.043-13.061,12.2-22.444,3.89-8.8,7.263-16.4,9.129-17.615,1.191-.78,1.054-1.529.864-2.035-.727-1.845-4.217-3.637-5.45-3.405-1.581.285-3.11,2.593-3.563,3.447a.538.538,0,0,1-.664.253c-.053,0-1.613-.569-3.163,1.771-1.687,2.625-2.288,9.287-2.288,9.351a.475.475,0,0,1-.084.242l-6.388,10.036a.538.538,0,0,1-.506.242c-1.613-.2-8.265-14.453-12.229-23.192Z" transform="translate(7.242 3.72)" fill="#231f20"/>
    <path id="Caminho_173" data-name="Caminho 173" d="M176.4,49.854a24.753,24.753,0,0,0-2.014,2.045c-2.319,2.614-3.616,5.956-4.86,9.214-1.887,4.944-3.025,14.579-6.114,18.533-3.394,4.333-11.027,2.456-14.01,7.569-1.908,3.268-.348,7.506-1.381,11.143-1.887,6.578-10.795,8.075-14.885,13.567-3.268,4.375-2.846,10.542-1.339,15.749,1.054,3.616,2.593,7.211,5.271,9.8,8.771,8.37,25.617,1.455,31.625-7.084,3-4.312,4.7-10.015,9.393-12.376,3.4-1.708,7.443-1.128,11.248-1.265a28.3,28.3,0,0,0,12.049-3.163c3.9-2.035,7.674-6.241,6.146-10.363-.959-2.562-3.753-4.217-4.217-6.926-.717-3.711,3.1-6.462,5.766-9.14,6.968-7.031,6.894-19.787-.158-26.734a11.6,11.6,0,0,0-.791-14.685,6.22,6.22,0,0,0-3.047-1.887,10.152,10.152,0,0,0-3.563.116C191.739,45.257,183.98,43.023,176.4,49.854Z" transform="translate(3.205 0.394)" fill="#fff"/>
    <path id="Caminho_174" data-name="Caminho 174" d="M147.385,141.818a14.9,14.9,0,0,1-10.605-3.953c-2.414-2.3-4.153-5.492-5.461-10.046s-2.2-11.343,1.423-16.2c1.792-2.414,4.47-4.069,7.063-5.671,3.447-2.108,6.7-4.143,7.738-7.727a16.383,16.383,0,0,0,.358-4.733c0-2.224-.095-4.533,1.054-6.525,1.687-2.888,4.723-3.679,7.643-4.449,2.53-.664,4.923-1.286,6.409-3.163,1.908-2.435,3.1-7.305,4.143-11.6a64.228,64.228,0,0,1,1.9-6.789c1.2-3.163,2.551-6.652,4.955-9.372a25.818,25.818,0,0,1,2.108-2.108h0c5.619-5.06,11.227-5.271,17.71-5.5,2.446-.095,4.965-.19,7.653-.548l.4-.063a9.119,9.119,0,0,1,3.342,0,6.663,6.663,0,0,1,3.31,2.045,12.165,12.165,0,0,1,1.054,15,20.156,20.156,0,0,1-.158,27.145c-.432.443-.9.886-1.37,1.328-2.361,2.224-4.786,4.522-4.217,7.379a8.265,8.265,0,0,0,2.108,3.574,12.05,12.05,0,0,1,2.108,3.268c1.56,4.217-2.035,8.729-6.388,11.016a29.022,29.022,0,0,1-12.281,3.257H186.59c-2.836,0-5.766,0-8.244,1.191-3.163,1.571-4.86,4.7-6.684,8-.78,1.413-1.592,2.878-2.509,4.217-3.932,5.619-12.186,10.236-19.618,10.985C148.8,141.786,148.08,141.818,147.385,141.818Zm29.4-91.545a23.761,23.761,0,0,0-1.982,2c-2.277,2.572-3.542,5.872-4.754,9.055a59.529,59.529,0,0,0-1.866,6.652c-1.128,4.628-2.288,9.4-4.333,12.007-1.708,2.182-4.385,2.888-6.979,3.563-2.836.738-5.524,1.444-6.989,3.964-1.054,1.729-.97,3.785-.928,5.967a17.226,17.226,0,0,1-.4,5.039c-1.139,3.985-4.733,6.2-8.2,8.339-2.5,1.55-5.092,3.163-6.768,5.4-3.363,4.522-2.541,10.848-1.254,15.3s2.9,7.379,5.176,9.572c3.7,3.532,8.528,3.879,11.923,3.532,7.158-.706,15.085-5.144,18.859-10.542.886-1.276,1.687-2.709,2.456-4.1,1.824-3.3,3.711-6.726,7.126-8.433,2.709-1.349,5.766-1.328,8.718-1.3h2.751a28.073,28.073,0,0,0,11.828-3.163c3.953-2.108,7.253-6.072,5.893-9.709a11,11,0,0,0-1.95-2.962,9.224,9.224,0,0,1-2.382-4.059c-.643-3.394,2.108-6.009,4.565-8.317.464-.432.928-.864,1.349-1.3a19.091,19.091,0,0,0-.148-25.986.527.527,0,0,1,0-.7,11.048,11.048,0,0,0-.759-13.947,5.7,5.7,0,0,0-2.783-1.75,8.286,8.286,0,0,0-2.962.074l-.411.063c-2.73.369-5.271.464-7.748.559-6.325.221-11.712.422-17.046,5.271Z" transform="translate(3.179 0.365)" fill="#231f20"/>
    <path id="Caminho_175" data-name="Caminho 175" d="M206.495,91.24s12.945,13.451,16.551,21.8a81.033,81.033,0,0,0-18.2,3.974Z" transform="translate(7.225 2.967)" fill="#39344f"/>
    <path id="Caminho_176" data-name="Caminho 176" d="M189.481,83.709S177.464,78.8,162.558,91.3c-6.641,5.64-8.033,11.744-10.848,18.069,2.108,21.189,9.572,57.885,9.572,57.885l58.254-1.434s-4.016-64.252-8.676-72.18S189.481,83.709,189.481,83.709Z" transform="translate(4.346 2.508)" fill="#39344f"/>
    <path id="Caminho_177" data-name="Caminho 177" d="M180.05,86.21c.907,1.771,10.9,39.953,10.9,39.953L196.337,90.7Z" transform="translate(5.881 2.695)" fill="#39344f"/>
    <path id="Caminho_178" data-name="Caminho 178" d="M190.977,126.718a.517.517,0,0,1-.506-.4c-2.783-10.605-10.141-38.435-10.858-39.848a.506.506,0,0,1,.063-.569.538.538,0,0,1,.548-.179l16.287,4.512a.517.517,0,0,1,.38.58l-5.4,35.463a.506.506,0,0,1-.485.443ZM180.91,87.007c1.7,5.334,7.885,28.79,9.93,36.58l4.934-32.479Z" transform="translate(5.854 2.668)" fill="#231f20"/>
    <path id="Caminho_179" data-name="Caminho 179" d="M203.769,57.115s2.72,8.634.991,15.043a9.488,9.488,0,0,1-7.58,7.095L196.738,90.7s-.179,5.861-7.316,4.67a12.323,12.323,0,0,1-9.372-7.464V66.824s8.317-4.364,7.906-11.954C187.967,54.859,197.455,59.92,203.769,57.115Z" transform="translate(5.881 0.997)" fill="#fff"/>
    <path id="Caminho_180" data-name="Caminho 180" d="M191.25,96.083a11.986,11.986,0,0,1-1.887-.158A12.745,12.745,0,0,1,179.58,88.1a.474.474,0,0,1,0-.169V66.851a.506.506,0,0,1,.285-.464c.074,0,8.012-4.3,7.622-11.459a.538.538,0,0,1,.242-.474.527.527,0,0,1,.527,0c.095,0,9.34,4.9,15.349,2.224a.527.527,0,0,1,.717.327c.116.358,2.751,8.855.991,15.338a10.1,10.1,0,0,1-7.569,7.379l-.432,11.037a5.925,5.925,0,0,1-2,4.059,6.156,6.156,0,0,1-4.059,1.265ZM180.6,87.829a11.881,11.881,0,0,0,8.908,7.052c2.2.369,3.911.074,5.081-.886a4.912,4.912,0,0,0,1.623-3.289l.464-11.427a.527.527,0,0,1,.464-.506,8.9,8.9,0,0,0,7.126-6.747c1.423-5.271-.274-12.207-.822-14.189-5.429,2-12.566-.97-14.927-2.108-.19,6.6-6.473,10.542-7.917,11.406Z" transform="translate(5.855 0.971)" fill="#231f20"/>
    <path id="Caminho_181" data-name="Caminho 181" d="M184.335,65.186S181.1,57.1,176.956,61.96,178.379,72.5,181.921,72.2" transform="translate(5.634 1.297)" fill="#fff"/>
    <path id="Caminho_182" data-name="Caminho 182" d="M181.613,72.77c-2.108,0-4.7-1.75-5.924-4.132a6.04,6.04,0,0,1,.864-7,3.922,3.922,0,0,1,3.605-1.7c2.825.474,4.617,4.891,4.691,5.071a.527.527,0,1,1-.97.39c-.453-1.117-2.035-4.111-3.89-4.417a2.941,2.941,0,0,0-2.635,1.339,4.986,4.986,0,0,0-.738,5.83c1.107,2.108,3.468,3.721,5.271,3.542a.527.527,0,0,1,.569.485.517.517,0,0,1-.474.569Z" transform="translate(5.605 1.271)" fill="#231f20"/>
    <path id="Caminho_183" data-name="Caminho 183" d="M198.216,71.857a9.488,9.488,0,0,1-2.477-.39.53.53,0,1,1,.316-1.012,5.745,5.745,0,0,0,3.279.148c.137-.464-1.276-3.215-3.078-5.83a.517.517,0,0,1,.126-.727.527.527,0,0,1,.738.127c.843,1.212,3.563,5.271,3.163,6.768a.917.917,0,0,1-.506.622,3.69,3.69,0,0,1-1.56.3Z" transform="translate(6.711 1.489)" fill="#231f20"/>
    <path id="Caminho_184" data-name="Caminho 184" d="M195.712,74.952a7.885,7.885,0,0,1-2.035-.274,8.433,8.433,0,0,1-4.8-3.553.527.527,0,0,1,.97-.4,7.6,7.6,0,0,0,4.291,2.983c2.2.548,4.512-.074,6.863-1.855a.527.527,0,0,1,.633.843,9.835,9.835,0,0,1-5.924,2.256Z" transform="translate(6.359 1.841)" fill="#231f20"/>
    <path id="Caminho_185" data-name="Caminho 185" d="M196.795,78.026s-6.146.527-9.625-.506c0,0,3.489,9.171,9.308,9.351Z" transform="translate(6.267 2.224)" fill="#39344f"/>
    <path id="Caminho_186" data-name="Caminho 186" d="M196.5,87.425h0c-6.1-.19-9.635-9.3-9.783-9.688a.569.569,0,0,1,.105-.548.538.538,0,0,1,.538-.148c3.342,1,9.372.485,9.435.485a.548.548,0,0,1,.411.148.5.5,0,0,1,.158.4l-.316,8.845a.527.527,0,0,1-.548.506Zm-8.433-9.119c1.054,2.2,3.848,7.474,7.9,8.022l.274-7.706A35.494,35.494,0,0,1,188.071,78.306Z" transform="translate(6.241 2.197)" fill="#231f20"/>
    <ellipse id="Elipse_131" data-name="Elipse 131" cx="0.896" cy="1.581" rx="0.896" ry="1.581" transform="matrix(1, -0.016, 0.016, 1, 198.523, 63.025)" fill="#231f20"/>
    <ellipse id="Elipse_132" data-name="Elipse 132" cx="0.896" cy="1.581" rx="0.896" ry="1.581" transform="matrix(1, -0.016, 0.016, 1, 206.816, 62.897)" fill="#231f20"/>
    <path id="Caminho_187" data-name="Caminho 187" d="M152.051,108s-12.123,39.7-3.595,48.946c5.914,6.42,21.084-.538,27.683-3.078,32.616-12.513,44.16-22.749,41.556-22.264.8-2.678-7.379,1.054-8.75,1.571-.548-2.193,3.458-6.051,5.714-6.178s4.849.791,5.2-1.444c.19-1.276-1.054-2.572-2.161-3.163s-10.658-1.149-12.65.664c-1.307,1.17-1.971,2.91-3.163,4.153a11.817,11.817,0,0,1-4.586,2.477q-9.688,3.479-19.629,6.262c-3.163.907-10.774,2.657-10.774,2.657l3.806-23.445" transform="translate(4.005 3.876)" fill="#fff"/>
    <path id="Caminho_188" data-name="Caminho 188" d="M155.82,160.177c-3.089,0-5.83-.77-7.727-2.836-8.623-9.361,2.983-47.828,3.479-49.452a.529.529,0,1,1,1.012.306c-.116.39-11.933,39.511-3.711,48.429,5.1,5.545,18.037.39,24.984-2.372l2.108-.843c27.3-10.468,39.669-19.313,41.387-21.421h0a.559.559,0,0,1-.137-.506.569.569,0,0,0,0-.211c-.126-.105-1.054-.559-7.664,2.256l-.411.169a.538.538,0,0,1-.443,0,.569.569,0,0,1-.274-.348,4.375,4.375,0,0,1,1.054-3.331c1.2-1.623,3.4-3.405,5.134-3.5a16.624,16.624,0,0,1,1.782,0c1.94.116,2.751.053,2.92-1.054s-.833-2.108-1.876-2.6-10.247-1.054-12.113.6a9.888,9.888,0,0,0-1.634,2.108,9.487,9.487,0,0,1-6.325,4.638c-6.441,2.309-13.061,4.417-19.671,6.325-3.163.886-10.721,2.635-10.795,2.657a.517.517,0,0,1-.474-.126.527.527,0,0,1-.158-.474l3.806-23.445a.517.517,0,0,1,.6-.432.538.538,0,0,1,.443.6l-3.69,22.675c2.013-.474,7.432-1.76,9.983-2.477,6.589-1.845,13.177-3.953,19.608-6.251a8.549,8.549,0,0,0,5.787-4.217,11.144,11.144,0,0,1,1.824-2.3c2.266-2.013,11.944-1.423,13.283-.748s2.678,2.2,2.446,3.711c-.337,2.108-2.288,2.024-4.016,1.929a12.813,12.813,0,0,0-1.676,0c-1.181.063-3.163,1.444-4.343,3.078a4.817,4.817,0,0,0-.886,1.782c5.123-2.108,7.58-2.72,8.433-1.929a1.054,1.054,0,0,1,.348.717.664.664,0,0,1,.274.369c.506,1.782-13.251,11.7-42.167,22.823l-2.108.822C169.166,157.246,161.871,160.177,155.82,160.177Z" transform="translate(3.978 3.849)" fill="#231f20"/>
    <path id="Caminho_189" data-name="Caminho 189" d="M169.337,116.068h-.095a.517.517,0,0,1-.422-.611l2.456-13.7a.538.538,0,0,1,.611-.432.527.527,0,0,1,.422.611l-2.456,13.7A.517.517,0,0,1,169.337,116.068Z" transform="translate(5.272 3.513)" fill="#231f20"/>
    <path id="Caminho_190" data-name="Caminho 190" d="M239.867,118.987a.538.538,0,0,1-.327-.116.527.527,0,0,1-.084-.738c1.5-1.845.411-5.977.4-6.019a.517.517,0,0,1,.327-.622.527.527,0,0,1,.654.264s1.054,2.256,2.741,2.425c.242-.39-.654-2.583-1.887-4.649a.527.527,0,1,1,.907-.538c.812,1.36,2.625,4.649,1.9,5.787a1.054,1.054,0,0,1-1.054.443,3.827,3.827,0,0,1-2.224-1.128,6.768,6.768,0,0,1-.97,4.691.506.506,0,0,1-.38.2Z" transform="translate(9.094 3.915)" fill="#231f20"/>
    <path id="Caminho_191" data-name="Caminho 191" d="M245.781,133.922a12.861,12.861,0,0,1-10.11-4.48,13.283,13.283,0,0,1-2.657-11.09c1.539-8.433,9.7-15.391,18.185-15.391a12.85,12.85,0,0,1,10.11,4.491,13.283,13.283,0,0,1,2.646,11.09h0C262.426,127.017,254.267,133.922,245.781,133.922Zm5.429-29.865c-8,0-15.7,6.515-17.152,14.527a12.26,12.26,0,0,0,2.414,10.226,11.838,11.838,0,0,0,9.308,4.1c8,0,15.686-6.515,17.141-14.516h0a12.207,12.207,0,0,0-2.414-10.226,11.838,11.838,0,0,0-9.3-4.111Z" transform="translate(8.735 3.602)" fill="#d1d3d4"/>
    <path id="Caminho_192" data-name="Caminho 192" d="M262.825,140.415h-64.79a4.976,4.976,0,0,1-4.586-6.884l13.7-32.774A4.955,4.955,0,0,1,211.74,97.7h64.748a4.965,4.965,0,0,1,4.586,6.884l-13.7,32.774A4.955,4.955,0,0,1,262.825,140.415ZM211.7,98.754a3.911,3.911,0,0,0-3.616,2.414l-13.7,32.764a3.922,3.922,0,0,0,3.616,5.429h64.79a3.911,3.911,0,0,0,3.616-2.414l13.7-32.764a3.922,3.922,0,0,0-3.616-5.429Z" transform="translate(6.587 3.317)" fill="#231f20"/>
    <path id="Caminho_193" data-name="Caminho 193" d="M229.542,104.874H211.747a.527.527,0,0,1-.527-.527.538.538,0,0,1,.527-.527h17.795a.538.538,0,0,1,.527.527A.527.527,0,0,1,229.542,104.874Z" transform="translate(7.57 3.649)" fill="#231f20"/>
    <path id="Caminho_194" data-name="Caminho 194" d="M227.281,108.564H209.5a.527.527,0,0,1,0-1.054h17.784a.527.527,0,0,1,0,1.054Z" transform="translate(7.448 3.849)" fill="#231f20"/>
    <path id="Caminho_197" data-name="Caminho 197" d="M257.67,171.282a34.324,34.324,0,1,0,68.648,0H291.994V137a34.335,34.335,0,0,0-34.324,34.282Z" transform="translate(10.087 5.447)" fill="#39344f"/>
    <path id="Caminho_198" data-name="Caminho 198" d="M295.49,132.15v34.324h34.324A34.324,34.324,0,0,0,295.49,132.15Z" transform="translate(12.136 5.184)" fill="#fff"/>
    <path id="Caminho_199" data-name="Caminho 199" d="M311.212,118.611H290.719a.5.5,0,1,1,0-.98h20.493a.5.5,0,0,1,0,.98Z" transform="translate(11.847 4.397)" fill="#d1d3d4"/>
    <path id="Caminho_200" data-name="Caminho 200" d="M317.672,118.611h-3.89a.5.5,0,0,1,0-.98h3.89a.5.5,0,1,1,0,.98Z" transform="translate(13.104 4.397)" fill="#d1d3d4"/>
    <path id="Caminho_201" data-name="Caminho 201" d="M320.765,110.37H290.542a.5.5,0,0,1,0-.98h30.223a.5.5,0,0,1,0,.98Z" transform="translate(11.845 3.951)" fill="#d1d3d4"/>
    <path id="Caminho_202" data-name="Caminho 202" d="M300.459,102.13h-9.814a.485.485,0,0,1-.485-.485.474.474,0,0,1,.485-.485h9.814a.485.485,0,0,1,.485.485A.5.5,0,0,1,300.459,102.13Z" transform="translate(11.847 3.505)" fill="#d1d3d4"/>
    <path id="Caminho_203" data-name="Caminho 203" d="M323.173,102.42H305.7a.474.474,0,0,1-.485-.485.485.485,0,0,1,.485-.485h17.468a.5.5,0,0,1,.485.485A.485.485,0,0,1,323.173,102.42Z" transform="translate(12.663 3.521)" fill="#d1d3d4"/>
    <path id="Caminho_204" data-name="Caminho 204" d="M311.212,118.611H290.719a.5.5,0,1,1,0-.98h20.493a.5.5,0,0,1,0,.98Z" transform="translate(11.847 4.397)" fill="none" stroke="#221e22" stroke-linecap="round" stroke-linejoin="round" stroke-width="1"/>
    <path id="Caminho_205" data-name="Caminho 205" d="M317.672,118.611h-3.89a.5.5,0,0,1,0-.98h3.89a.5.5,0,1,1,0,.98Z" transform="translate(13.104 4.397)" fill="none" stroke="#221e22" stroke-linecap="round" stroke-linejoin="round" stroke-width="1"/>
    <path id="Caminho_206" data-name="Caminho 206" d="M320.765,110.37H290.542a.5.5,0,0,1,0-.98h30.223a.5.5,0,0,1,0,.98Z" transform="translate(11.845 3.951)" fill="none" stroke="#221e22" stroke-linecap="round" stroke-linejoin="round" stroke-width="1"/>
    <path id="Caminho_207" data-name="Caminho 207" d="M300.459,102.13h-9.814a.485.485,0,0,1-.485-.485.474.474,0,0,1,.485-.485h9.814a.485.485,0,0,1,.485.485A.5.5,0,0,1,300.459,102.13Z" transform="translate(11.847 3.505)" fill="none" stroke="#221e22" stroke-linecap="round" stroke-linejoin="round" stroke-width="1"/>
    <path id="Caminho_208" data-name="Caminho 208" d="M323.173,102.42H305.7a.474.474,0,0,1-.485-.485.485.485,0,0,1,.485-.485h17.468a.5.5,0,0,1,.485.485A.485.485,0,0,1,323.173,102.42Z" transform="translate(12.663 3.521)" fill="none" stroke="#221e22" stroke-linecap="round" stroke-linejoin="round" stroke-width="1"/>
    <path id="Caminho_209" data-name="Caminho 209" d="M324.235,213.854H290.427a.527.527,0,0,1,0-1.054h33.808a.527.527,0,1,1,0,1.054Z" transform="translate(11.833 9.554)" fill="#221e22"/>
    <path id="Caminho_210" data-name="Caminho 210" d="M316.925,222.964H290.9a.527.527,0,1,1,0-1.054h26.028a.538.538,0,0,1,.527.527A.527.527,0,0,1,316.925,222.964Z" transform="translate(11.859 10.047)" fill="#221e22"/>
    <path id="Caminho_211" data-name="Caminho 211" d="M320.577,231.754h-30.15a.527.527,0,0,1,0-1.054h30.15a.538.538,0,0,1,.527.527.527.527,0,0,1-.527.527Z" transform="translate(11.833 10.523)" fill="#221e22"/>
    <path id="Caminho_212" data-name="Caminho 212" d="M323.845,222.534h-4.818a.527.527,0,1,1,0-1.054h4.8a.527.527,0,0,1,0,1.054Z" transform="translate(13.383 10.024)" fill="#221e22"/>
    <path id="Caminho_213" data-name="Caminho 213" d="M134.636,91.378h-56.8a.527.527,0,0,1-.527-.527V44.277a.527.527,0,1,1,1.054,0V90.324h56.272a.527.527,0,1,1,0,1.054Z" transform="translate(0.315 0.394)" fill="#221e22"/>
    <path id="Caminho_214" data-name="Caminho 214" d="M77.837,90.8a.517.517,0,0,1-.358-.148.506.506,0,0,1,0-.738l23.856-25.564a.569.569,0,0,1,.443-.169.548.548,0,0,1,.39.253l5.271,8.5L124.01,54.7a.527.527,0,1,1,.78.706L107.765,74.15a.538.538,0,0,1-.443.169.506.506,0,0,1-.4-.242l-5.271-8.507L78.216,90.627a.506.506,0,0,1-.38.169Z" transform="translate(0.315 0.977)" fill="#221e22"/>
    <path id="Caminho_215" data-name="Caminho 215" d="M311.45,93.816h0a.506.506,0,0,1-.464-.348l-18.923-52.6L271.223,81.419a.548.548,0,0,1-.422.285.538.538,0,0,1-.464-.211L249.77,54.6,236.793,75.4a.538.538,0,0,1-.727.169L225.155,69a.527.527,0,1,1,.548-.9l10.468,6.325L249.254,53.4a.548.548,0,0,1,.422-.253.5.5,0,0,1,.443.211L270.643,80.2,291.663,39.3a.548.548,0,0,1,.506-.285.559.559,0,0,1,.464.348l18.849,52.509,9.277-19.618a.527.527,0,1,1,.949.443l-9.814,20.778A.517.517,0,0,1,311.45,93.816Z" transform="translate(8.309 0.138)" fill="#221e22"/>
    <circle id="Elipse_133" data-name="Elipse 133" cx="2.583" cy="2.583" r="2.583" transform="translate(242.066 72.618)" fill="#fff"/>
    <path id="Caminho_216" data-name="Caminho 216" d="M235.913,76.5a3.163,3.163,0,1,1,3.163-3.163A3.163,3.163,0,0,1,235.913,76.5Zm0-5.176a2.108,2.108,0,1,0,2.108,2.056,2.108,2.108,0,0,0-2.108-2.056Z" transform="translate(8.737 1.826)" fill="#221e22"/>
    <circle id="Elipse_134" data-name="Elipse 134" cx="2.583" cy="2.583" r="2.583" transform="translate(255.444 51.229)" fill="#fff"/>
    <path id="Caminho_217" data-name="Caminho 217" d="M248.6,56.2a3.163,3.163,0,1,1,3.163-3.11A3.162,3.162,0,0,1,248.6,56.2Zm0-5.165a2.093,2.093,0,1,1,0,.032Z" transform="translate(9.424 0.726)" fill="#221e22"/>
    <path id="Caminho_460" data-name="Caminho 460" d="M2.583,0A2.583,2.583,0,1,1,0,2.583,2.583,2.583,0,0,1,2.583,0Z" transform="translate(297.885 37.103)" fill="#fff"/>
    <path id="Caminho_218" data-name="Caminho 218" d="M288.853,42.8a3.163,3.163,0,1,1,3.163-3.11A3.162,3.162,0,0,1,288.853,42.8Zm0-5.165a2.108,2.108,0,1,0,2.108,2.108A2.108,2.108,0,0,0,288.853,37.63Z" transform="translate(11.605)" fill="#221e22"/>
    <circle id="Elipse_136" data-name="Elipse 136" cx="2.583" cy="2.583" r="2.583" transform="translate(317.166 90.813)" fill="#fff"/>
    <path id="Caminho_219" data-name="Caminho 219" d="M307.165,93.745a3.163,3.163,0,1,1,3.11-3.163,3.163,3.163,0,0,1-3.11,3.163Zm0-5.176a2.108,2.108,0,1,0,2.056,2.108,2.108,2.108,0,0,0-2.056-2.108Z" transform="translate(12.594 2.761)" fill="#221e22"/>
    <circle id="Elipse_137" data-name="Elipse 137" cx="2.583" cy="2.583" r="2.583" transform="translate(276.485 78.732)" fill="#fff"/>
    <path id="Caminho_220" data-name="Caminho 220" d="M268.563,82.325a3.163,3.163,0,1,1,3.163-3.11A3.162,3.162,0,0,1,268.563,82.325Zm0-5.165a2.056,2.056,0,1,0,2.108,2.108,2.108,2.108,0,0,0-2.108-2.151Z" transform="translate(10.506 2.142)" fill="#221e22"/>
    <path id="Caminho_221" data-name="Caminho 221" d="M146.254,50.264H131.717a.527.527,0,0,1,0-1.054h14.537a.527.527,0,0,1,0,1.054Z" transform="translate(3.234 0.69)" fill="#221e22"/>
    <path id="Caminho_222" data-name="Caminho 222" d="M146.254,53.824H131.717a.527.527,0,0,1,0-1.054h14.537a.527.527,0,0,1,0,1.054Z" transform="translate(3.234 0.883)" fill="#221e22"/>
    <path id="Caminho_223" data-name="Caminho 223" d="M141.363,57.394h-9.646a.527.527,0,0,1,0-1.054h9.646a.538.538,0,0,1,.527.527A.527.527,0,0,1,141.363,57.394Z" transform="translate(3.234 1.077)" fill="#221e22"/>
  </g>
</svg>
