<svg xmlns="http://www.w3.org/2000/svg" width="234.47" height="164.459" viewBox="0 0 234.47 164.459">
  <g id="_532_sending_emails_flatline" data-name="#532_sending_emails_flatline" transform="translate(-50.32 -42.85)">
    <path id="Caminho_610" data-name="Caminho 610" d="M257.852,120.212v92.674H86.74V120.212L172.3,68.48Z" transform="translate(-8.471 -5.961)" fill="#f1f2f2"/>
    <path id="Caminho_611" data-name="Caminho 611" d="M257.729,213.152H86.594a.384.384,0,0,1-.384-.384V120.094a.384.384,0,0,1,.192-.33L172,68.033a.376.376,0,0,1,.4,0l85.552,51.732a.384.384,0,0,1,.184.33v92.674a.384.384,0,0,1-.407.384ZM87,212.385H257.368V120.294l-85.184-51.5L87,120.294Z" transform="translate(-8.347 -5.844)" fill="#231f20"/>
    <path id="Caminho_612" data-name="Caminho 612" d="M238.275,77.009s3.952-7.383,3.438-12.279-5.372-5.771-5.372-5.771-11.719-6.1-14.435-10.329L222,54.815a17.229,17.229,0,0,1-5.779-3.369s-1.826,3.154.146,5.963c0,0-3.453.675-5.725-1.612,0,0,1.159,9.286,9.347,10.483C225.382,67.033,232.4,77.37,238.275,77.009Z" transform="translate(-37.287 -1.344)" fill="#fff"/>
    <path id="Caminho_613" data-name="Caminho 613" d="M237.863,77.265c-3.239,0-6.715-2.916-10.076-5.733-2.885-2.417-5.6-4.7-7.95-5.042-8.38-1.228-9.662-10.744-9.677-10.821a.384.384,0,0,1,.652-.315,6.231,6.231,0,0,0,4.8,1.535,6.345,6.345,0,0,1,.177-5.84.376.376,0,0,1,.576-.107,18.833,18.833,0,0,0,5.142,3.131l-.084-5.641a.368.368,0,0,1,.269-.368.384.384,0,0,1,.437.153c2.548,3.96,13.43,9.739,14.243,10.168a7.114,7.114,0,0,1,5.61,6.139c.522,5-3.323,12.233-3.484,12.54a.384.384,0,0,1-.315.2Zm.3-.391ZM211.126,56.606c.583,2.394,2.625,8.211,8.825,9.125,2.556.376,5.372,2.724,8.327,5.211,3.262,2.732,6.623,5.556,9.585,5.556h.061c.606-1.189,3.745-7.574,3.292-11.9a6.237,6.237,0,0,0-5.042-5.433l-.107-.038c-.453-.23-10.253-5.372-13.86-9.508l.077,5.019a.391.391,0,0,1-.146.307.384.384,0,0,1-.338.069,16.937,16.937,0,0,1-5.541-3.162,5.234,5.234,0,0,0,.322,5.142.414.414,0,0,1,.038.368.384.384,0,0,1-.284.23,7.574,7.574,0,0,1-5.211-.982Z" transform="translate(-37.175 -1.208)" fill="#231f20"/>
    <path id="Caminho_614" data-name="Caminho 614" d="M225.675,164.471s18.886-22.877,22.01-40.351-7.789-21.488-11.6-22.792-23.644-9.531-33.605-2.348S182.6,150.972,182.6,150.972Z" transform="translate(-30.766 -12.378)" fill="#39344f"/>
    <path id="Caminho_615" data-name="Caminho 615" d="M143.169,201.148l20.314-25.325s14.136-18.027,6.239-19.953c0,0-10.959,1.427-28.863,7.674-5.318,1.849-14.458,22.969-20.229,37.6Z" transform="translate(-16.353 -26.286)" fill="#39344f"/>
    <path id="Caminho_616" data-name="Caminho 616" d="M143.049,201.418H120.472a.376.376,0,0,1-.315-.169.384.384,0,0,1,0-.353c6.4-16.239,15.149-35.992,20.459-37.842,17.727-6.139,28.824-7.674,28.939-7.674h.138a3.208,3.208,0,0,1,2.463,2.087c1.819,5.218-8.066,17.912-8.488,18.418L143.348,201.21a.384.384,0,0,1-.3.207Zm-21.971-.767h21.787L163,175.44c.1-.123,10.046-12.893,8.373-17.712a2.417,2.417,0,0,0-1.857-1.573c-.967.13-11.8,1.742-28.709,7.628-3.9,1.358-10.9,14.443-19.769,36.867Z" transform="translate(-16.233 -26.172)" fill="#231f20"/>
    <path id="Caminho_617" data-name="Caminho 617" d="M186.525,202.815l5.157-12.563s12.586,3.768,20.981.606c5.909-2.226,7.713-9.861,10.383-16.047,0,0-35.3-8.365-43.183-11.772,0,0-.491,0-9.524,9.485-4.037,4.259-7.252,17.236-9.57,30.29Z" transform="translate(-25.688 -27.954)" fill="#39344f"/>
    <path id="Caminho_618" data-name="Caminho 618" d="M186.407,203.081H160.652a.384.384,0,0,1-.3-.138.4.4,0,0,1-.084-.307c2.947-16.576,6.208-26.86,9.677-30.49,9.148-9.639,9.639-9.616,9.815-9.608a.445.445,0,0,1,.138,0c7.789,3.423,42.768,11.7,43.091,11.788a.369.369,0,0,1,.253.522c-.5,1.151-.975,2.379-1.435,3.561-2.064,5.318-4.205,10.821-9.171,12.693-7.751,2.916-18.786.077-20.889-.507l-5.027,12.279A.376.376,0,0,1,186.407,203.081Zm-25.325-.767h25.072l5.065-12.325a.376.376,0,0,1,.46-.223c.13,0,12.563,3.691,20.72.614,4.6-1.742,6.715-7.083,8.726-12.279.407-1.051.829-2.133,1.266-3.169-4.075-.975-34.925-8.388-42.615-11.611-.437.33-2.249,1.919-9.286,9.324-3.277,3.492-6.523,13.737-9.386,29.668Z" transform="translate(-25.571 -27.836)" fill="#231f20"/>
    <path id="Caminho_619" data-name="Caminho 619" d="M191.818,99.86s-8.442,9.209-13.154,13.814-13.952,10.567-13.952,10.567-27.55,2.218-27.842,2.655,0,9.585,0,9.585,26.921,5.165,31.833,4.275,16.5-8.68,16.5-8.68Z" transform="translate(-20.1 -13.259)" fill="#39344f"/>
    <path id="Caminho_620" data-name="Caminho 620" d="M222.436,87.21l-.852,8.664a6.357,6.357,0,0,0,7.383,4.083c5.848-.89,6.907-4.9,6.907-4.9l3.791-16.929S236.157,75.6,232.85,65.7c0,0-12.217-2.3-12.639,2.41,0,0-2.41,8.442-2.233,12.9C218.138,85.346,222.359,87.141,222.436,87.21Z" transform="translate(-38.991 -5.184)" fill="#fff"/>
    <path id="Caminho_621" data-name="Caminho 621" d="M227.51,100.317a6.753,6.753,0,0,1-6.4-4.459.315.315,0,0,1,0-.146l.813-8.442a7.767,7.767,0,0,1-4.436-6.416c-.177-4.482,2.149-12.67,2.249-13.046a2.694,2.694,0,0,1,1.143-1.949c3.07-2.348,11.58-.767,11.933-.767a.4.4,0,0,1,.3.261c3.208,9.616,6.638,12.217,6.677,12.279a.391.391,0,0,1,.146.391l-3.791,16.929c-.054.192-1.228,4.275-7.221,5.2A10.109,10.109,0,0,1,227.51,100.317Zm-5.648-4.6a5.948,5.948,0,0,0,6.907,3.745c5.5-.844,6.584-4.6,6.592-4.6L239.1,78.177c-.806-.7-3.837-3.737-6.684-12.279-1.351-.23-8.534-1.335-11.112.622A2,2,0,0,0,220.449,68c0,.153-2.4,8.442-2.233,12.847.13,3.269,2.663,5.057,4.159,5.825a.983.983,0,0,1,.184.115.376.376,0,0,1,.115.315Z" transform="translate(-38.877 -5.052)" fill="#231f20"/>
    <path id="Caminho_622" data-name="Caminho 622" d="M240.744,81.6a3.753,3.753,0,0,1,1.435-1.88,4.7,4.7,0,0,1,3.492-.86A3.051,3.051,0,0,1,247.5,82.44a5.226,5.226,0,0,1-3.346,3.8,4.551,4.551,0,0,1-3.469-.368" transform="translate(-44.276 -8.364)" fill="#fff"/>
    <path id="Caminho_623" data-name="Caminho 623" d="M242.761,86.678a4.9,4.9,0,0,1-2.371-.6.385.385,0,1,1,.368-.675,4.2,4.2,0,0,0,3.177.338A4.835,4.835,0,0,0,247,82.234a2.694,2.694,0,0,0-1.535-3.123,4.259,4.259,0,0,0-3.177.767,3.292,3.292,0,0,0-1.282,1.681.4.4,0,1,1-.767-.246,4.113,4.113,0,0,1,1.581-2.072,5.027,5.027,0,0,1,3.837-.913,3.435,3.435,0,0,1,2.11,4.021A5.625,5.625,0,0,1,244.15,86.5a4.75,4.75,0,0,1-1.389.177Z" transform="translate(-44.159 -8.235)" fill="#231f20"/>
    <path id="Caminho_624" data-name="Caminho 624" d="M228.709,76.92s-3.515,4.075-2.9,4.935,2.648.583,2.648.583" transform="translate(-40.798 -7.924)" fill="#fff"/>
    <path id="Caminho_625" data-name="Caminho 625" d="M227.63,82.779a2.809,2.809,0,0,1-2.249-.767c-.683-.959,1.535-3.837,2.924-5.372a.384.384,0,0,1,.576.5c-1.688,1.965-3.031,4.052-2.87,4.474.345.476,1.589.507,2.3.414a.387.387,0,0,1,.1.767A6.9,6.9,0,0,1,227.63,82.779Z" transform="translate(-40.686 -7.836)" fill="#231f20"/>
    <ellipse id="Elipse_153" data-name="Elipse 153" cx="1.044" cy="0.737" rx="1.044" ry="0.737" transform="matrix(0.16, -0.987, 0.987, 0.16, 192.675, 69.276)" fill="#231f20"/>
    <ellipse id="Elipse_154" data-name="Elipse 154" cx="0.737" cy="1.044" rx="0.737" ry="1.044" transform="translate(183.886 66.787) rotate(-1.99)" fill="#231f20"/>
    <path id="Caminho_626" data-name="Caminho 626" d="M223.611,93.9s5.264,1.773,8.618.269c0,0-4.221,6.907-9.209,5.671Z" transform="translate(-40.166 -11.873)" fill="#39344f"/>
    <path id="Caminho_627" data-name="Caminho 627" d="M224.149,100.268a5.326,5.326,0,0,1-1.328-.161.391.391,0,0,1-.292-.407l.583-5.94a.4.4,0,0,1,.169-.292.384.384,0,0,1,.33,0c.054,0,5.172,1.7,8.35.276a.391.391,0,0,1,.445.1.384.384,0,0,1,0,.453C232.284,94.528,228.723,100.268,224.149,100.268Zm-.821-.836c3.446.606,6.523-2.9,7.812-4.6a15.7,15.7,0,0,1-7.314-.5Z" transform="translate(-40.052 -11.764)" fill="#231f20"/>
    <path id="Caminho_628" data-name="Caminho 628" d="M222.089,77.04h-.253L219,76.817a3.07,3.07,0,0,1-2.816-3.3l.184-2.3a.384.384,0,0,1,.414-.345l8.181.645a.4.4,0,0,1,.261.138.368.368,0,0,1,.092.276l-.184,2.3a3.07,3.07,0,0,1-3.07,2.816Zm-4.981-5.372-.153,1.888a2.3,2.3,0,0,0,2.11,2.471l2.832.223h0a2.241,2.241,0,0,0,1.673-.537,2.3,2.3,0,0,0,.806-1.535l.146-1.888Z" transform="translate(-38.575 -6.516)" fill="#231f20"/>
    <path id="Caminho_629" data-name="Caminho 629" d="M235.349,78.125H235.1l-2.832-.23a3.07,3.07,0,0,1-2.816-3.3l.184-2.3a.384.384,0,0,1,.414-.353l8.181.652a.376.376,0,0,1,.345.407l-.176,2.3a3.07,3.07,0,0,1-3.07,2.824Zm-.192-.767a2.252,2.252,0,0,0,2.44-2.08l.153-1.888-7.39-.637-.146,1.88a2.3,2.3,0,0,0,2.11,2.471Z" transform="translate(-41.659 -6.765)" fill="#231f20"/>
    <path id="Caminho_630" data-name="Caminho 630" d="M229.288,74.538h0l-2-.161a.384.384,0,0,1-.353-.414.4.4,0,0,1,.414-.353l2,.161a.384.384,0,0,1,0,.767Z" transform="translate(-41.078 -7.154)" fill="#231f20"/>
    <path id="Caminho_631" data-name="Caminho 631" d="M226.851,90.611a5.633,5.633,0,0,1-5.057-4.021.384.384,0,0,1,.061-.361.338.338,0,0,1,.322-.153,23.261,23.261,0,0,0,9.608-1.535.384.384,0,0,1,.376.038.376.376,0,0,1,.161.345c0,.177-.4,4.39-4.106,5.449a4.788,4.788,0,0,1-1.366.238Zm-4.136-3.745c.806,1.7,2.671,3.561,5.272,2.809a5.268,5.268,0,0,0,3.446-4.136,24.5,24.5,0,0,1-8.718,1.328Z" transform="translate(-39.876 -9.689)" fill="#231f20"/>
    <path id="Caminho_632" data-name="Caminho 632" d="M252.479,111.546c4.466,2.1,11.718,51.179,3.837,54.487-12.279,5.119-45.516-12.279-45.516-12.279l6.538-12.87s22.578,6.723,24.143,2.133-6.185-29.83-3.545-32.577S252.479,111.546,252.479,111.546Z" transform="translate(-37.324 -15.49)" fill="#39344f"/>
    <path id="Caminho_633" data-name="Caminho 633" d="M209.308,154.887a53.675,53.675,0,0,1-11.166-3.584,35.838,35.838,0,0,0-8.181-3.231,32.922,32.922,0,0,0-11.565-.43.96.96,0,0,0-.437.146c-.453.384.215,1.044.767,1.22a15.548,15.548,0,0,0,4.6.629,44.151,44.151,0,0,0-11.511,2.648c-.422.161-.921.46-.852.9s.806.568,1.328.483l9.132-1.535a21.189,21.189,0,0,0-6.723,1.965c-.3.146-.645.361-.66.7,0,.583.813.691,1.389.576a49.176,49.176,0,0,0,8.211-2.417l-6.055,2.494a.806.806,0,0,0,.583.99,2.394,2.394,0,0,0,1.266-.1l6.469-1.734-4.152,1.535c-.652.238-1.443.683-1.335,1.374.123.813,1.251.875,2.064.767a43.858,43.858,0,0,1,9.723-.361,14.865,14.865,0,0,1,3.515.215,30.618,30.618,0,0,1,4.8,2.479c2.379,1.243,4.75,2.509,7.122,3.776" transform="translate(-28.059 -24.298)" fill="#fff"/>
    <path id="Caminho_634" data-name="Caminho 634" d="M207.589,164.584a.338.338,0,0,1-.169-.038q-3.545-1.9-7.122-3.776c-.476-.246-.967-.537-1.466-.836a16.186,16.186,0,0,0-3.277-1.612,7.3,7.3,0,0,0-2.218-.192h-1.213a43.2,43.2,0,0,0-9.646.361,2.97,2.97,0,0,1-2.011-.284,1.113,1.113,0,0,1-.453-.767,1.228,1.228,0,0,1,.453-1.136l-1,.269a2.6,2.6,0,0,1-1.466.092,1.3,1.3,0,0,1-.767-.668.944.944,0,0,1,0-.767c-.591.138-1.174.269-1.765.391a1.934,1.934,0,0,1-1.535-.261.821.821,0,0,1-.284-.675c0-.6.629-.89.852-1l.445-.207-2.648.445a1.965,1.965,0,0,1-1.374-.2.867.867,0,0,1-.353-.576c-.046-.307,0-.883,1.074-1.274a44.133,44.133,0,0,1,8.388-2.3,14.707,14.707,0,0,1-1.466-.292,1.719,1.719,0,0,1-1.166-1.09.767.767,0,0,1,.261-.729,1.2,1.2,0,0,1,.606-.223,33.1,33.1,0,0,1,11.688.43,31.1,31.1,0,0,1,7.283,2.793l.982.468a54.2,54.2,0,0,0,11.043,3.515.353.353,0,0,1,.261.422.345.345,0,0,1-.422.261,55.208,55.208,0,0,1-11.235-3.6l-.982-.476a30.7,30.7,0,0,0-7.129-2.732,32.232,32.232,0,0,0-11.442-.422.491.491,0,0,0-.253.069c0,.215.33.507.652.606a15.349,15.349,0,0,0,4.5.614h0a.353.353,0,0,1,0,.7,44.005,44.005,0,0,0-11.4,2.632c-.307.115-.66.322-.629.514a.161.161,0,0,0,.069.115,1.3,1.3,0,0,0,.852.077l7.068-1.2a21,21,0,0,1,2.08-.353.361.361,0,0,1,.391.3.353.353,0,0,1-.292.4l-2.049.345a20.858,20.858,0,0,0-4.6,1.589c-.376.184-.46.322-.46.4a.13.13,0,0,0,.046.115,1.3,1.3,0,0,0,.913.1,48.83,48.83,0,0,0,8.165-2.4.353.353,0,0,1,.453.192.361.361,0,0,1-.192.46l-5.878,2.425a.169.169,0,0,0,0,.1.591.591,0,0,0,.338.3,2,2,0,0,0,1.074-.1l6.469-1.742a.353.353,0,0,1,.207.668l-4.144,1.535c-.361.13-1.19.491-1.113.99a.422.422,0,0,0,.176.292,2.2,2.2,0,0,0,1.481.161,43.742,43.742,0,0,1,9.808-.368H193.2a7.744,7.744,0,0,1,2.433.223,15.886,15.886,0,0,1,3.423,1.681c.491.284.975.568,1.443.813q3.568,1.873,7.122,3.776a.345.345,0,0,1,.146.476A.338.338,0,0,1,207.589,164.584Z" transform="translate(-27.966 -24.203)" fill="#231f20"/>
    <path id="Caminho_635" data-name="Caminho 635" d="M206.154,105.75c-1.589.929-10.107,20.083-13.814,29.223" transform="translate(-33.031 -14.629)" fill="#fff"/>
    <path id="Caminho_636" data-name="Caminho 636" d="M192.262,135.216a.353.353,0,0,1-.33-.483c3.354-8.311,12.133-28.341,13.944-29.4a.353.353,0,1,1,.361.606c-1.358.767-9.462,18.671-13.652,29.055A.345.345,0,0,1,192.262,135.216Z" transform="translate(-32.93 -14.519)" fill="#231f20"/>
    <path id="Caminho_637" data-name="Caminho 637" d="M131.067,153.74l-.437,3.9L180.4,179.073l.153-4.1Z" transform="translate(-18.678 -25.791)" fill="#fff"/>
    <path id="Caminho_638" data-name="Caminho 638" d="M180.28,179.353a.345.345,0,0,1-.153,0l-49.767-21.434a.384.384,0,0,1-.23-.4l.437-3.9a.361.361,0,0,1,.192-.284.368.368,0,0,1,.345,0l49.483,21.219a.376.376,0,0,1,.23.368l-.153,4.1a.4.4,0,0,1-.184.315.368.368,0,0,1-.2.015ZM130.92,157.3l48.992,21.1.13-3.285-48.77-20.928Z" transform="translate(-18.561 -25.687)" fill="#231f20"/>
    <path id="Caminho_639" data-name="Caminho 639" d="M131.2,151.692s14.5-6.953,14.865-6.753,51.64,20.72,51.64,20.72l-17.021,7.267Z" transform="translate(-18.811 -23.743)" fill="#fff"/>
    <path id="Caminho_640" data-name="Caminho 640" d="M180.567,173.2a.368.368,0,0,1-.153,0L130.93,151.933a.384.384,0,0,1-.23-.345.376.376,0,0,1,.215-.353c14.681-7.045,15-6.868,15.218-6.746.767.345,51.095,20.5,51.6,20.72a.368.368,0,0,1,.238.353.376.376,0,0,1-.23.353l-17.021,7.267a.368.368,0,0,1-.153.015Zm-48.555-21.641L180.567,172.4l16.016-6.807c-7.92-3.177-48.163-19.285-50.7-20.344-1,.23-8.672,3.822-13.875,6.308Z" transform="translate(-18.695 -23.631)" fill="#231f20"/>
    <path id="Caminho_641" data-name="Caminho 641" d="M195.48,183.305l16.538-7.7.637-3.668-17.021,7.267Z" transform="translate(-33.761 -30.024)" fill="#fff"/>
    <path id="Caminho_642" data-name="Caminho 642" d="M195.363,183.573a.353.353,0,0,1-.215-.061.368.368,0,0,1-.169-.338l.154-4.1a.4.4,0,0,1,.23-.338l17.029-7.267a.368.368,0,0,1,.384.054.361.361,0,0,1,.138.368l-.629,3.661a.407.407,0,0,1-.215.284l-16.546,7.674A.4.4,0,0,1,195.363,183.573Zm.53-4.221-.13,3.262,15.794-7.352.476-2.778Z" transform="translate(-33.645 -29.907)" fill="#231f20"/>
    <path id="Caminho_643" data-name="Caminho 643" d="M130.891,142.825,129.87,106.81l52.1,23.921-1.6,33.329Z" transform="translate(-18.502 -14.876)" fill="#fff"/>
    <path id="Caminho_644" data-name="Caminho 644" d="M180.255,164.331a.368.368,0,0,1-.153,0l-49.483-21.265a.376.376,0,0,1-.23-.345l-1.028-36.015a.384.384,0,0,1,.176-.33.376.376,0,0,1,.368,0l52.131,23.9a.368.368,0,0,1,.223.361l-1.6,33.329a.384.384,0,0,1-.176.307.345.345,0,0,1-.23.061ZM131.14,142.452l48.754,20.928,1.535-32.523L130.15,107.3Z" transform="translate(-18.383 -14.763)" fill="#231f20"/>
    <path id="Caminho_645" data-name="Caminho 645" d="M228.52,164.257a.415.415,0,0,1-.161,0L217.822,159.4a.384.384,0,0,1-.215-.437l3.185-13.322a.376.376,0,0,1,.437-.292l20.6,3.3L241.151,116a.376.376,0,0,1,.376-.391h0a.391.391,0,0,1,.384.376l.683,33.107a.368.368,0,0,1-.138.292.376.376,0,0,1-.307.092l-20.72-3.315-3.031,12.67,10.253,4.658a.413.413,0,0,1-.13.767Z" transform="translate(-38.905 -16.922)" fill="#231f20"/>
    <path id="Caminho_646" data-name="Caminho 646" d="M111.191,214.478c-1.788-1.351-3.929-2.064-5.441,0Z" transform="translate(-12.892 -39.616)" fill="#fff"/>
    <path id="Caminho_647" data-name="Caminho 647" d="M111.08,214.724h-5.441a.361.361,0,0,1-.315-.192.353.353,0,0,1,0-.368,3.246,3.246,0,0,1,2.164-1.4,5.178,5.178,0,0,1,3.776,1.335.361.361,0,0,1,.123.391.368.368,0,0,1-.307.238Zm-4.658-.7h3.492a3.73,3.73,0,0,0-2.3-.576A2.3,2.3,0,0,0,106.422,214.026Z" transform="translate(-12.781 -39.509)" fill="#231f20"/>
    <path id="Caminho_648" data-name="Caminho 648" d="M163.815,195.437h-.061a.384.384,0,0,1-.315-.437c.061-.384,1.535-9.393,4.382-13.967a.384.384,0,0,1,.652.4c-2.74,4.443-4.267,13.6-4.282,13.691A.376.376,0,0,1,163.815,195.437Z" transform="translate(-26.308 -32.102)" fill="#fff"/>
    <path id="Caminho_649" data-name="Caminho 649" d="M223,112.4l.783,2.625L214,135.176l2.786,7.206,6.109-5.211,2.509-22.163,1.3-1.335-1.335-2.233Z" transform="translate(-38.069 -15.953)" fill="#fff"/>
    <path id="Caminho_650" data-name="Caminho 650" d="M257.852,135.89v92.674H86.74V135.89l85.56,58.263Z" transform="translate(-8.471 -21.639)" fill="#fff"/>
    <path id="Caminho_651" data-name="Caminho 651" d="M257.729,228.828H86.594a.384.384,0,0,1-.384-.384V135.771a.376.376,0,0,1,.207-.338.391.391,0,0,1,.4,0l85.337,58.124,85.337-58.124a.376.376,0,0,1,.391,0,.368.368,0,0,1,.207.338v92.674A.384.384,0,0,1,257.729,228.828ZM87,228.061H257.368V136.492l-84.954,57.864a.4.4,0,0,1-.43,0L87,136.492Z" transform="translate(-8.347 -21.52)" fill="#231f20"/>
    <path id="Caminho_652" data-name="Caminho 652" d="M172.185,194.419a.414.414,0,0,1-.215-.061l-85.56-58.27a.384.384,0,0,1-.1-.53.391.391,0,0,1,.537-.107l85.337,58.124,85.337-58.124a.384.384,0,0,1,.53.107.376.376,0,0,1-.1.53L172.4,194.358A.437.437,0,0,1,172.185,194.419Z" transform="translate(-8.355 -21.522)" fill="#231f20"/>
    <path id="Caminho_653" data-name="Caminho 653" d="M86.74,240.488l85.552-53.328,85.56,53.328Z" transform="translate(-8.471 -33.563)" fill="#fff"/>
    <path id="Caminho_654" data-name="Caminho 654" d="M257.729,240.757H86.594a.384.384,0,0,1-.368-.276.376.376,0,0,1,.169-.43L172,186.723a.391.391,0,0,1,.407,0l85.544,53.328a.376.376,0,0,1,.169.43A.384.384,0,0,1,257.729,240.757ZM87.96,239.989H256.416L172.207,187.5Z" transform="translate(-8.347 -33.449)" fill="#231f20"/>
    <path id="Caminho_681" data-name="Caminho 681" d="M0,0H49.368V27.366H0Z" transform="translate(207.377 173.114) rotate(-14.34)" fill="#fff"/>
    <path id="Caminho_655" data-name="Caminho 655" d="M261.639,235.671a.452.452,0,0,1-.2-.054.43.43,0,0,1-.177-.238l-6.776-26.514a.391.391,0,0,1,.276-.468L302.6,196.172a.422.422,0,0,1,.292,0,.368.368,0,0,1,.177.238l6.776,26.514a.384.384,0,0,1-.276.468l-47.833,12.225Zm-6.308-26.591,6.584,25.77L309,222.809l-6.546-25.8Z" transform="translate(-47.482 -35.653)" fill="#231f20"/>
    <path id="Caminho_656" data-name="Caminho 656" d="M263.81,240.789,283.924,219.8l27.719,8.756Z" transform="translate(-49.653 -41.155)" fill="#fff"/>
    <path id="Caminho_657" data-name="Caminho 657" d="M263.693,241.056a.384.384,0,0,1-.33-.192.368.368,0,0,1,.054-.46l20.114-20.981a.391.391,0,0,1,.391-.107l27.719,8.764a.384.384,0,0,1,.269.376.391.391,0,0,1-.292.361l-47.833,12.225Zm20.229-20.935L264.9,239.967,310.129,228.4Z" transform="translate(-49.536 -41.039)" fill="#231f20"/>
    <path id="Caminho_658" data-name="Caminho 658" d="M254.98,208.893l28.057,10.084,19.776-22.317Z" transform="translate(-47.6 -35.773)" fill="#39344f"/>
    <path id="Caminho_659" data-name="Caminho 659" d="M282.921,219.252a.361.361,0,0,1-.13,0l-28.057-10.084a.384.384,0,0,1-.253-.376.391.391,0,0,1,.284-.361L302.6,196.207a.391.391,0,0,1,.422.169.384.384,0,0,1-.038.46L283.2,219.145a.368.368,0,0,1-.284.107Zm-26.752-10.406,26.637,9.57,18.771-21.181Z" transform="translate(-47.483 -35.665)" fill="#231f20"/>
    <path id="Caminho_682" data-name="Caminho 682" d="M0,0H28.118V15.586H0Z" transform="matrix(0.971, -0.24, 0.24, 0.971, 253.255, 142.746)" fill="#fff"/>
    <path id="Caminho_660" data-name="Caminho 660" d="M318.38,186.367a.391.391,0,0,1-.376-.292l-3.737-15.126a.391.391,0,0,1,.276-.468l27.3-6.746a.368.368,0,0,1,.46.276l3.745,15.126a.384.384,0,0,1-.046.292.368.368,0,0,1-.238.177l-27.289,6.746ZM315.1,171.134l3.561,14.381,26.545-6.561-3.522-14.381Z" transform="translate(-61.386 -28.112)" fill="#231f20"/>
    <path id="Caminho_661" data-name="Caminho 661" d="M319.63,189.134l11.55-11.864,15.74,5.111Z" transform="translate(-62.636 -31.263)" fill="#fff"/>
    <path id="Caminho_662" data-name="Caminho 662" d="M319.514,189.4a.368.368,0,0,1-.33-.192.384.384,0,0,1,.054-.46l11.55-11.857a.376.376,0,0,1,.391-.1l15.747,5.111a.384.384,0,0,1,0,.767l-27.289,6.746Zm11.657-11.8-10.445,10.744,24.68-6.1Z" transform="translate(-62.52 -31.148)" fill="#231f20"/>
    <path id="Caminho_663" data-name="Caminho 663" d="M314.75,170.973l15.932,5.863,11.366-12.616Z" transform="translate(-61.501 -28.228)" fill="#39344f"/>
    <path id="Caminho_664" data-name="Caminho 664" d="M330.575,177.112a.438.438,0,0,1-.138,0l-15.932-5.863a.384.384,0,0,1-.246-.384.376.376,0,0,1,.284-.353l27.3-6.746a.384.384,0,0,1,.422.169.391.391,0,0,1-.046.46l-11.358,12.593a.414.414,0,0,1-.284.123Zm-14.627-6.139,14.512,5.372,10.353-11.511Z" transform="translate(-61.387 -28.12)" fill="#231f20"/>
    <rect id="Retângulo_850" data-name="Retângulo 850" width="24.511" height="13.583" transform="translate(217.509 142.196) rotate(-24.12)" fill="#fff"/>
    <path id="Caminho_665" data-name="Caminho 665" d="M273.621,181.975a.376.376,0,0,1-.353-.223l-5.548-12.4a.376.376,0,0,1,.192-.507l22.363-10.015a.391.391,0,0,1,.514.192l5.533,12.363a.384.384,0,0,1,0,.292.422.422,0,0,1-.2.215l-22.37,9.976A.391.391,0,0,1,273.621,181.975Zm-5.05-12.586,5.241,11.7,21.664-9.7-5.234-11.7Z" transform="translate(-50.554 -26.967)" fill="#231f20"/>
    <path id="Caminho_666" data-name="Caminho 666" d="M275.42,184.826l8.066-11.956,14.3,1.942Z" transform="translate(-52.354 -30.24)" fill="#fff"/>
    <path id="Caminho_667" data-name="Caminho 667" d="M275.3,185.143a.376.376,0,0,1-.322-.6l8.073-11.956a.384.384,0,0,1,.368-.169l14.3,1.949a.384.384,0,0,1,.33.322.391.391,0,0,1-.223.407l-22.37,9.976A.392.392,0,0,1,275.3,185.143Zm8.25-11.933-7.183,10.652,19.915-8.917Z" transform="translate(-52.234 -30.134)" fill="#231f20"/>
    <path id="Caminho_668" data-name="Caminho 668" d="M268.18,169.265l14.581,2.563,7.789-12.578Z" transform="translate(-50.67 -27.072)" fill="#39344f"/>
    <path id="Caminho_669" data-name="Caminho 669" d="M282.638,172.1h-.061L268,169.534a.376.376,0,0,1-.307-.33.384.384,0,0,1,.223-.4l22.363-10.015a.391.391,0,0,1,.453.1.376.376,0,0,1,0,.453l-7.789,12.586A.391.391,0,0,1,282.638,172.1Zm-13.276-3.07,13.092,2.3,7-11.3Z" transform="translate(-50.555 -26.957)" fill="#231f20"/>
    <path id="Caminho_670" data-name="Caminho 670" d="M154.18,43.35h-45a5.318,5.318,0,0,0-5.318,5.318V71.691a5.318,5.318,0,0,0,5.318,5.318h40.067l4.773,8.181.061-8.181h.13a5.318,5.318,0,0,0,5.318-5.318V48.668a5.318,5.318,0,0,0-5.349-5.318Z" transform="translate(-12.452 -0.116)" fill="#fff"/>
    <path id="Caminho_671" data-name="Caminho 671" d="M153.872,85.457a.384.384,0,0,1-.33-.192l-4.658-7.989H109.062a5.71,5.71,0,0,1-5.7-5.7V48.552a5.71,5.71,0,0,1,5.7-5.7h45a5.7,5.7,0,0,1,5.7,5.7V71.575a5.7,5.7,0,0,1-5.449,5.694l-.061,7.812a.368.368,0,0,1-.284.361.207.207,0,0,1-.1.015Zm-44.81-41.84a4.942,4.942,0,0,0-4.935,4.935V71.575a4.942,4.942,0,0,0,4.935,4.935h40.067a.384.384,0,0,1,.338.192l4.067,6.976.046-6.784a.384.384,0,0,1,.384-.384h.13a4.942,4.942,0,0,0,4.935-4.935V48.552a4.935,4.935,0,0,0-4.934-4.935Z" transform="translate(-12.336)" fill="#231f20"/>
    <path id="Caminho_672" data-name="Caminho 672" d="M130.45,63.11l20.168-12.34-17.09,7.114Z" transform="translate(-18.637 -1.842)" fill="#231f20"/>
    <path id="Caminho_673" data-name="Caminho 673" d="M130.334,63.376a.384.384,0,0,1-.269-.115.391.391,0,0,1-.061-.468l3.07-5.218a.376.376,0,0,1,.184-.161l17.09-7.122a.384.384,0,0,1,.345.683l-20.16,12.34A.384.384,0,0,1,130.334,63.376Zm3.346-5.3-2.233,3.783L146.1,52.908Z" transform="translate(-18.521 -1.724)" fill="#231f20"/>
    <path id="Caminho_674" data-name="Caminho 674" d="M134.46,57.884l6.6,3.369L151.55,50.77Z" transform="translate(-19.569 -1.842)" fill="#f1f2f2"/>
    <path id="Caminho_675" data-name="Caminho 675" d="M140.951,61.495a.384.384,0,0,1-.161,0L134.2,58.126a.353.353,0,0,1-.2-.384.338.338,0,0,1,.215-.307l17.09-7.122a.353.353,0,0,1,.376.576L141.2,61.387a.361.361,0,0,1-.246.107ZM135.188,57.8l5.717,2.909,9.056-9.048Z" transform="translate(-19.46 -1.731)" fill="#231f20"/>
    <path id="Caminho_676" data-name="Caminho 676" d="M148.655,50.77l-21.71,5.18-4.935-2.816Z" transform="translate(-16.674 -1.842)" fill="#f1f2f2"/>
    <path id="Caminho_677" data-name="Caminho 677" d="M126.838,56.216a.33.33,0,0,1-.169-.046l-4.942-2.824a.35.35,0,0,1,.146-.652l26.645-2.364a.368.368,0,0,1,.376.292.353.353,0,0,1-.261.4l-21.71,5.2Zm-3.791-2.924,3.837,2.2,16.883-4.044Z" transform="translate(-16.567 -1.74)" fill="#231f20"/>
    <path id="Caminho_678" data-name="Caminho 678" d="M128.44,55.95l1.543,7.16,3.077-5.226,17.09-7.114Z" transform="translate(-18.169 -1.842)" fill="#221e22"/>
    <path id="Caminho_679" data-name="Caminho 679" d="M129.88,63.348h-.054a.345.345,0,0,1-.284-.276l-1.535-7.152a.345.345,0,0,1,.261-.414l21.7-5.188a.368.368,0,0,1,.422.23.361.361,0,0,1-.2.437L133.2,58.053l-3.016,5.126A.361.361,0,0,1,129.88,63.348ZM128.767,56.1l1.282,5.948,2.625-4.451a.345.345,0,0,1,.169-.146l13.046-5.441Z" transform="translate(-18.066 -1.735)" fill="#39344f"/>
    <text id="Enviado" transform="translate(104.912 70.455)" font-size="9" font-family="SegoeUI, Segoe UI" letter-spacing="0.01em"><tspan x="0" y="0">Enviado</tspan></text>
    <path id="Caminho_680" data-name="Caminho 680" d="M138.635,210.138a.384.384,0,0,1,0-.767c1.021,0,2.041,0,3.07-.077a.384.384,0,1,1,0,.767C140.676,210.1,139.648,210.123,138.635,210.138Zm-3.07,0h0c-1.021,0-2.049,0-3.07-.077a.384.384,0,0,1-.368-.391.4.4,0,0,1,.4-.376c1.021.038,2.034.061,3.07.077a.384.384,0,0,1,0,.767Zm9.209-.215a.376.376,0,0,1-.376-.361.384.384,0,0,1,.361-.407c1.013-.054,2.034-.123,3.07-.207a.376.376,0,0,1,.407.353.384.384,0,0,1-.353.414c-1.021.077-2.041.146-3.07.207Zm-15.348,0h0c-1.028-.061-2.049-.13-3.07-.215a.385.385,0,0,1,.061-.767c1.021.084,2.034.153,3.07.215a.384.384,0,0,1,0,.767Zm21.488-.483a.4.4,0,0,1-.384-.345.384.384,0,0,1,.345-.422q1.535-.161,3.07-.345a.387.387,0,0,1,.1.767q-1.535.2-3.07.345Zm-27.573,0H123.3c-1.021-.115-2.041-.238-3.07-.368a.387.387,0,0,1,.1-.767c1.005.13,2.018.253,3.07.361a.384.384,0,1,1-.046.767Zm33.667-.767a.384.384,0,0,1-.376-.322.376.376,0,0,1,.322-.437c1.005-.153,2.018-.315,3.024-.483a.376.376,0,0,1,.437.315.368.368,0,0,1-.307.437c-1.013.176-2.026.338-3.07.491Zm-39.745-.061H117.2c-1.013-.161-2.026-.338-3.031-.522a.39.39,0,1,1,.138-.767c1.005.192,2.011.361,3.016.522a.385.385,0,0,1-.061.767Zm45.8-.975a.386.386,0,0,1-.077-.767c1.005-.2,2.011-.407,3-.622a.393.393,0,0,1,.169.767l-3.016.622Zm-51.824-.153h-.084c-1.005-.215-2-.445-3-.691a.376.376,0,0,1-.276-.46.384.384,0,0,1,.46-.284c.99.246,1.98.468,2.978.683a.384.384,0,0,1,.292.46.376.376,0,0,1-.391.292Zm57.787-1.159a.376.376,0,0,1-.368-.292.384.384,0,0,1,.276-.468q1.5-.368,2.97-.767a.384.384,0,0,1,.468.269.4.4,0,0,1-.269.476c-.99.261-1.988.514-2.985.767Zm-63.78-.292h-.107c-.99-.276-1.972-.56-2.955-.86a.4.4,0,0,1,.23-.767c.967.3,1.949.583,2.932.852a.391.391,0,0,1,.269.476.384.384,0,0,1-.353.3Zm69.713-1.312a.387.387,0,1,1-.107-.767c.982-.284,1.957-.591,2.924-.9a.4.4,0,1,1,.238.767c-.975.315-1.957.614-2.947.906a.245.245,0,0,1-.092-.008Zm-75.576-.491a.344.344,0,0,1-.123,0c-.975-.33-1.942-.683-2.893-1.044a.384.384,0,0,1,.269-.714c.952.353,1.9.7,2.87,1.028a.391.391,0,0,1,.238.491.376.376,0,0,1-.345.238Zm81.423-1.4a.376.376,0,0,1-.361-.253.391.391,0,0,1,.238-.491c.967-.338,1.926-.691,2.878-1.051a.376.376,0,0,1,.491.223.384.384,0,0,1-.223.5c-.952.361-1.919.714-2.893,1.059a.36.36,0,0,1-.115.015Zm-87.156-.767a.33.33,0,0,1-.146,0c-.952-.4-1.9-.813-2.824-1.228a.384.384,0,0,1-.184-.514.376.376,0,0,1,.507-.184c.913.414,1.849.829,2.793,1.22a.376.376,0,0,1,.207.5.368.368,0,0,1-.338.2Zm92.9-1.412a.368.368,0,0,1-.353-.238.376.376,0,0,1,.207-.5c.944-.391,1.88-.767,2.809-1.2a.384.384,0,0,1,.507.2.391.391,0,0,1-.192.507c-.936.414-1.88.813-2.832,1.213a.483.483,0,0,1-.13.015Zm-98.46-1.143a.453.453,0,0,1-.169-.038c-.921-.46-1.834-.944-2.724-1.435a.384.384,0,0,1-.153-.522.391.391,0,0,1,.522-.153c.883.491,1.788.967,2.7,1.42a.4.4,0,0,1,.169.522.391.391,0,0,1-.345.207Zm104.085-1.351a.368.368,0,0,1-.345-.215.384.384,0,0,1,.176-.514c.921-.445,1.834-.9,2.74-1.366a.384.384,0,1,1,.353.683c-.913.468-1.826.929-2.763,1.374a.315.315,0,0,1-.161.031Zm-109.45-1.612a.384.384,0,0,1-.2-.061c-.883-.53-1.757-1.082-2.609-1.642a.384.384,0,0,1-.107-.53.376.376,0,0,1,.53-.107c.844.553,1.711,1.1,2.586,1.627a.384.384,0,0,1,.13.522A.391.391,0,0,1,82.728,196.547Zm114.9-1.22a.4.4,0,0,1-.338-.192.391.391,0,0,1,.154-.522c.89-.5,1.773-1.013,2.64-1.535a.386.386,0,1,1,.4.66q-1.312.767-2.671,1.535A.384.384,0,0,1,197.626,195.327ZM77.609,193.163a.4.4,0,0,1-.223-.069q-1.259-.913-2.463-1.865a.384.384,0,0,1-.061-.537.4.4,0,0,1,.545-.061c.767.629,1.6,1.243,2.425,1.842a.384.384,0,0,1,.092.537.391.391,0,0,1-.315.153Zm-4.8-3.837a.4.4,0,0,1-.253-.092c-.691-.606-1.381-1.228-2.041-1.849l-.238-.23a.376.376,0,0,1,0-.537.384.384,0,0,1,.545,0l.23.223c.66.622,1.335,1.236,2.026,1.826a.384.384,0,0,1-.253.675Zm-4.451-4.221a.391.391,0,0,1-.276-.115c-.721-.767-1.427-1.535-2.1-2.256a.376.376,0,0,1,0-.537.384.384,0,0,1,.545,0c.675.767,1.374,1.535,2.087,2.233a.384.384,0,0,1,0,.545.414.414,0,0,1-.253.161Zm-4.1-4.6a.391.391,0,0,1-.3-.146c-.66-.767-1.3-1.612-1.911-2.417a.391.391,0,0,1,.077-.537.384.384,0,0,1,.537.077c.606.767,1.243,1.6,1.888,2.394a.376.376,0,0,1-.046.537.391.391,0,0,1-.246.161Zm-3.691-4.9a.376.376,0,0,1-.315-.169c-.583-.852-1.151-1.727-1.681-2.594a.384.384,0,0,1,.652-.4c.522.852,1.082,1.719,1.658,2.563a.376.376,0,0,1-.1.53.361.361,0,0,1-.215.138Zm-3.208-5.226a.391.391,0,0,1-.338-.2c-.5-.906-.975-1.834-1.42-2.747a.384.384,0,0,1,.184-.514.376.376,0,0,1,.506.176c.437.906.913,1.819,1.4,2.717a.368.368,0,0,1-.146.514.338.338,0,0,1-.184.123Zm-2.678-5.464a.384.384,0,0,1-.361-.238c-.391-.944-.767-1.919-1.105-2.878a.384.384,0,0,1,.721-.261c.338.952.706,1.911,1.1,2.847a.391.391,0,0,1-.207.5.353.353,0,0,1-.146.031Zm-2.041-5.786a.376.376,0,0,1-.368-.276c-.284-.99-.545-2-.767-2.993a.382.382,0,1,1,.744-.169c.223.982.476,1.972.767,2.947a.384.384,0,0,1-.261.476.276.276,0,0,1-.1.015Zm-1.343-5.986a.384.384,0,0,1-.384-.322c-.161-1.021-.292-2.049-.391-3.07a.385.385,0,0,1,.767-.069c.1,1,.23,2.011.391,3.016a.384.384,0,0,1-.315.445Zm-.591-6.1a.391.391,0,0,1-.384-.376c0-.507,0-1.013,0-1.535v-1.581a.376.376,0,0,1,.4-.368.384.384,0,0,1,.368.391c0,.514,0,1.036,0,1.535v1.489a.384.384,0,0,1-.376.4Zm.207-6.139h0a.376.376,0,0,1-.345-.414c.107-1.028.246-2.064.422-3.07a.376.376,0,0,1,.437-.315.384.384,0,0,1,.315.445c-.169.99-.307,2-.407,3.016a.4.4,0,0,1-.407.345Zm1.036-6.047h-.092a.384.384,0,0,1-.276-.468c.238-1.005.522-2,.836-2.978a.384.384,0,0,1,.483-.246.376.376,0,0,1,.246.476c-.307.959-.583,1.942-.821,2.932a.384.384,0,0,1-.361.292Zm1.88-5.84a.315.315,0,0,1-.146,0,.384.384,0,0,1-.215-.5c.384-.952.813-1.9,1.266-2.824a.384.384,0,1,1,.683.338c-.437.906-.86,1.834-1.236,2.778a.391.391,0,0,1-.338.215Zm2.717-5.472a.361.361,0,0,1-.192-.054.376.376,0,0,1-.138-.522c.522-.883,1.067-1.765,1.635-2.625a.384.384,0,0,1,.637.422c-.553.844-1.1,1.719-1.612,2.586A.384.384,0,0,1,56.544,123.535Zm3.384-5.126a.361.361,0,0,1-.23-.077.384.384,0,0,1-.084-.53c.614-.829,1.251-1.65,1.9-2.44a.376.376,0,0,1,.537-.054.384.384,0,0,1,.054.537c-.645.767-1.274,1.589-1.873,2.41a.391.391,0,0,1-.307.13Zm3.891-4.743a.353.353,0,0,1-.253-.1.384.384,0,0,1,0-.545c.691-.767,1.42-1.535,2.149-2.218a.376.376,0,0,1,.537,0,.384.384,0,0,1,0,.545c-.721.7-1.435,1.435-2.126,2.187a.376.376,0,0,1-.307.107Zm4.39-4.29a.368.368,0,0,1-.284-.13.376.376,0,0,1,0-.537c.767-.683,1.581-1.343,2.387-1.972a.391.391,0,0,1,.476.614c-.767.614-1.589,1.266-2.356,1.934a.384.384,0,0,1-.223.069Zm63.773-1.213a.384.384,0,0,1-.338-.207,13.286,13.286,0,0,0-1.78-2.387.386.386,0,1,1,.576-.514,13.3,13.3,0,0,1,1.88,2.548.376.376,0,0,1-.161.514.353.353,0,0,1-.176.023ZM73.1,105.593a.361.361,0,0,1-.315-.169.376.376,0,0,1,.1-.53c.844-.583,1.719-1.143,2.594-1.673a.376.376,0,0,1,.53.13.384.384,0,0,1-.13.53c-.867.514-1.727,1.074-2.563,1.642A.361.361,0,0,1,73.1,105.593Zm54.84-2.011a.376.376,0,0,1-.246-.092,25.61,25.61,0,0,0-2.44-1.788.385.385,0,0,1,.422-.645,26.8,26.8,0,0,1,2.509,1.849.384.384,0,0,1-.246.675Zm-49.621-1.151a.391.391,0,0,1-.345-.207.384.384,0,0,1,.161-.514c.906-.476,1.842-.929,2.786-1.351a.376.376,0,0,1,.507.192.391.391,0,0,1-.192.507c-.929.414-1.849.86-2.74,1.328A.376.376,0,0,1,78.316,102.431Zm44.51-2.21a.353.353,0,0,1-.169-.046c-.883-.437-1.819-.852-2.77-1.22a.383.383,0,1,1,.276-.714A25.456,25.456,0,0,1,123,99.492a.384.384,0,0,1,.169.514.391.391,0,0,1-.376.215Zm-38.885-.307a.391.391,0,0,1-.361-.246.376.376,0,0,1,.223-.491c.959-.368,1.942-.706,2.924-1.013a.368.368,0,0,1,.476.253.376.376,0,0,1-.253.476c-.959.307-1.934.637-2.878,1a.361.361,0,0,1-.161.023Zm5.848-1.834a.386.386,0,1,1-.092-.767c.99-.253,2-.476,3.016-.668a.384.384,0,0,1,.453.3.391.391,0,0,1-.307.453c-1,.192-2,.414-2.978.66Zm27.32-.069h-.1c-.952-.269-1.942-.514-2.955-.721a.384.384,0,0,1-.3-.453.391.391,0,0,1,.453-.3,30.791,30.791,0,0,1,3.008.767.36.36,0,0,1-.138.706Zm-21.3-1.09a.385.385,0,1,1-.054-.767c1.013-.138,2.041-.253,3.07-.338a.385.385,0,0,1,.061.767c-1.005.092-2.026.2-3.024.338Zm15.295-.138h-.054c-.975-.123-2-.23-3.024-.3a.384.384,0,0,1-.361-.407.391.391,0,0,1,.414-.361c1.044.077,2.08.177,3.07.307a.384.384,0,0,1-.046.767Zm-9.209-.391a.384.384,0,0,1-.384-.368.391.391,0,0,1,.368-.4c1.021,0,2.064-.046,3.07,0a.391.391,0,0,1,.376.391.384.384,0,0,1-.391.376h-3.07Z" transform="translate(0 -12.269)" fill="#d1d3d4"/>
  </g>
</svg>
