<svg xmlns="http://www.w3.org/2000/svg" width="178" height="146.988" viewBox="0 0 178 146.988">
  <g id="_508_team_work_flatline" data-name="#508_team_work_flatline" transform="translate(-73.948 -43.757)">
    <ellipse id="Elipse_138" data-name="Elipse 138" cx="24.104" cy="3.238" rx="24.104" ry="3.238" transform="translate(94.894 184.269)" fill="#221e22" opacity="0.53"/>
    <ellipse id="Elipse_139" data-name="Elipse 139" cx="24.104" cy="3.238" rx="24.104" ry="3.238" transform="translate(199.577 184.269)" fill="#221e22" opacity="0.53"/>
    <path id="Caminho_224" data-name="Caminho 224" d="M140.47,244.33s4.19,12.82,4.932,12.577,15.657-8.88,15.165-10.357-10.85,1.6-10.85,1.6l-2.332-6.9" transform="translate(-22.832 -67.785)" fill="#fff"/>
    <path id="Caminho_225" data-name="Caminho 225" d="M145.262,257.063a.414.414,0,0,1-.2-.046c-.926-.466-3.822-9.077-5.024-12.755a.328.328,0,0,1,.21-.42.335.335,0,0,1,.414.217c1.786,5.464,3.973,11.487,4.643,12.308,2.029-.867,14.731-8.63,14.817-9.917-.177-.525-4.683.131-10.436,1.846a.341.341,0,0,1-.407-.21l-2.338-6.9a.335.335,0,0,1,.2-.42.342.342,0,0,1,.42.21l2.24,6.568c9.346-2.752,10.771-1.832,10.948-1.314.131.387.4,1.189-7.225,6.023-3.757,2.371-7.691,4.6-8.111,4.749a.414.414,0,0,1-.158.066Z" transform="translate(-22.679 -67.612)" fill="#231f20"/>
    <path id="Caminho_226" data-name="Caminho 226" d="M108.037,213.28s-8.63.125-8.873.86-2.837,14.449-.493,13.319,6.161-8.88,6.161-8.88l4.315-.657Z" transform="translate(-8.151 -58.185)" fill="#fff"/>
    <path id="Caminho_227" data-name="Caminho 227" d="M98.245,227.676a.742.742,0,0,1-.486-.184c-1.609-1.432.762-13.135.919-13.628.079-.236.322-.959,9.195-1.084a.361.361,0,0,1,.328.25l1.11,4.63a.348.348,0,0,1-.046.256.322.322,0,0,1-.223.145l-4.151.657c-.565,1.136-3.98,7.809-6.239,8.88A.946.946,0,0,1,98.245,227.676Zm1.044-13.549c-.348,1.2-2.213,11.881-1.09,12.873,0,0,.046.046.158,0,1.839-.867,4.959-6.568,6.009-8.722a.309.309,0,0,1,.243-.177l3.941-.657-.965-4.019C103.867,213.5,99.841,213.772,99.289,214.126ZM99.289,214.126Z" transform="translate(-7.981 -58.013)" fill="#231f20"/>
    <path id="Caminho_228" data-name="Caminho 228" d="M188.21,54.779l3.691-2.115s1.038-3.323,2.082-4.125,2.483.289,2.483.289,3.816-3.185,4.735-3.08-.3,1.734-1.235,2.555L198,50.031s1.727,3.52.729,4.906-9.037,5.668-9.037,5.668Z" transform="translate(-39.218 -0.683)" fill="#fff"/>
    <path id="Caminho_229" data-name="Caminho 229" d="M189.5,60.768a.513.513,0,0,1-.138,0,.348.348,0,0,1-.184-.223l-1.458-5.819a.322.322,0,0,1,.151-.361l3.579-2.043c.223-.657,1.143-3.389,2.135-4.177a2.314,2.314,0,0,1,2.667.138c1.09-.9,3.868-3.093,4.788-2.995a.657.657,0,0,1,.591.447c.25.795-1.136,2.24-1.635,2.686l-1.786,1.563c.4.867,1.557,3.678.591,5.018s-8.321,5.32-9.149,5.76A.3.3,0,0,1,189.5,60.768Zm-1.084-5.983,1.314,5.169c2.437-1.314,7.809-4.341,8.538-5.372s-.3-3.639-.755-4.6a.335.335,0,0,1,.079-.394l1.97-1.721a4.3,4.3,0,0,0,1.445-1.97c-.506-.046-2.739,1.537-4.519,3.021a.328.328,0,0,1-.407,0s-1.268-.939-2.082-.3-1.675,3.074-1.97,3.941a.361.361,0,0,1-.151.19Z" transform="translate(-39.047 -0.524)" fill="#231f20"/>
    <path id="Caminho_230" data-name="Caminho 230" d="M120.14,80.568c2.89,1.616,44.569-22.718,44.569-22.718l6.207,6.423-42.2,30.566Z" transform="translate(-15.854 -4.837)" fill="#39344f"/>
    <path id="Caminho_231" data-name="Caminho 231" d="M122.282,91.82s-24.793,0-31.184,5.09c-4.735,3.77-5.629,30.054-5.629,30.054l47.34-3.691S135.529,95.564,122.282,91.82Z" transform="translate(-3.955 -16.496)" fill="#39344f"/>
    <path id="Caminho_232" data-name="Caminho 232" d="M146.842,108.137a.3.3,0,0,1-.3-.3V94.942a.3.3,0,0,1,.6,0v12.892A.3.3,0,0,1,146.842,108.137Z" transform="translate(-24.916 -17.464)" fill="#231f20"/>
    <path id="Caminho_233" data-name="Caminho 233" d="M217.993,196.755c-.407-.322-15.106-1.826-16.019-1.543s-4.6,12.433-4.525,13.47c.118,2.075,8.236-6.239,8.236-6.239l12.308,2.469" transform="translate(-42.389 -51.971)" fill="#fff"/>
    <path id="Caminho_234" data-name="Caminho 234" d="M197.541,209.189a.478.478,0,0,1-.2,0,.611.611,0,0,1-.394-.6c-.046-.775,3.487-13.4,4.762-13.792.959-.3,15.763,1.156,16.314,1.6a.329.329,0,0,1-.374.539c-1.031-.387-14.922-1.727-15.763-1.511-.788.6-4.361,12.117-4.3,13.135.657.2,4.505-3.212,7.671-6.45a.322.322,0,0,1,.3-.092l12.3,2.45a.335.335,0,0,1,.263.388.328.328,0,0,1-.388.256L205.613,202.7C203.55,204.769,199.045,209.189,197.541,209.189Z" transform="translate(-42.217 -51.828)" fill="#231f20"/>
    <path id="Caminho_235" data-name="Caminho 235" d="M311.64,240.363c0,.427,4,13.26,5.169,13.464s17.641-4.991,16.281-5.911-8.814-.243-8.814-.243L320.3,237" transform="translate(-81.582 -66.326)" fill="#fff"/>
    <path id="Caminho_236" data-name="Caminho 236" d="M316.643,253.967h-.066c-1.55-.276-5.432-13.641-5.438-13.792a.329.329,0,0,1,.657-.053c.184,1.162,3.941,12.669,4.932,13.181a53.661,53.661,0,0,0,8.151-2.279c4.6-1.53,7.126-2.627,7.7-3.12-1.228-.519-5.635-.355-8.44-.105a.322.322,0,0,1-.335-.21l-3.941-10.659a.328.328,0,1,1,.611-.23l3.882,10.423c1.465-.118,7.468-.558,8.781.322a.466.466,0,0,1,.184.585C332.642,249.652,318.042,253.967,316.643,253.967Z" transform="translate(-81.41 -66.138)" fill="#231f20"/>
    <path id="Caminho_237" data-name="Caminho 237" d="M261.015,147.553s-6.489,48.674-13.135,47.189S214.64,187.6,214.64,187.6l2.4-10.508s18.922,2.01,21.444,2.194.749-33.949.749-33.949Z" transform="translate(-48.289 -34.866)" fill="#fff"/>
    <path id="Caminho_238" data-name="Caminho 238" d="M247.99,194.931a1.813,1.813,0,0,1-.374-.039c-6.568-1.458-32.97-7.087-33.233-7.139a.342.342,0,0,1-.21-.145.335.335,0,0,1-.046-.25l2.4-10.508a.342.342,0,0,1,.355-.256c.19,0,18.948,2.016,21.437,2.194,1.314-.657,1.228-17.595.4-33.607a.3.3,0,0,1,.1-.25.328.328,0,0,1,.263-.092l21.785,2.22a.326.326,0,0,1,.3.368c-.23,1.747-5.766,42.756-11.993,47.1A2.089,2.089,0,0,1,247.99,194.931Zm-33.147-7.75c3.067.657,26.737,5.694,32.918,7.073a1.313,1.313,0,0,0,1.038-.269c5.7-3.987,11.119-42.3,11.671-46.316l-21.076-2.141c.236,4.657,1.5,31.637-.611,33.706a.657.657,0,0,1-.512.2c-2.325-.171-18.764-1.911-21.161-2.167Z" transform="translate(-48.11 -34.693)" fill="#231f20"/>
    <path id="Caminho_239" data-name="Caminho 239" d="M276.25,152.526l22.829,64.581,12.833-6.883-19.67-61.513Z" transform="translate(-69.435 -36.022)" fill="#fff"/>
    <path id="Caminho_240" data-name="Caminho 240" d="M298.894,217.272a.315.315,0,0,1-.118,0,.328.328,0,0,1-.2-.2l-22.823-64.581a.348.348,0,0,1,0-.269.368.368,0,0,1,.217-.164l15.986-3.816a.322.322,0,0,1,.387.223l19.7,61.513a.328.328,0,0,1-.158.387l-12.84,6.883a.3.3,0,0,1-.158.02ZM276.5,152.6l22.573,63.878,12.262-6.568L291.84,148.935Z" transform="translate(-69.257 -35.86)" fill="#231f20"/>
    <path id="Caminho_241" data-name="Caminho 241" d="M283.217,99.111l7.993-2.627c-.368-.539-4.4-12.925-9.195-15.283-4.184-2.772-11.914-2.246-20.662-1.635a26.96,26.96,0,0,0-8.2,1.708c-9.852,3.941-11.27,16.912-11.27,16.912l9.1,3.172s-1.471,17.648-2.857,26.875c0,0,11.086,4.2,35.866.1C283.992,128.285,283.263,101.719,283.217,99.111Z" transform="translate(-57.639 -12.123)" fill="#39344f"/>
    <path id="Caminho_242" data-name="Caminho 242" d="M283.237,87.41l-8.873,20.248L272.19,88.126Z" transform="translate(-68.042 -14.983)" fill="#39344f"/>
    <path id="Caminho_243" data-name="Caminho 243" d="M274.2,107.815h-.046a.328.328,0,0,1-.276-.289L271.7,87.987a.355.355,0,0,1,.072-.243.328.328,0,0,1,.23-.118l11.06-.716a.341.341,0,0,1,.289.138.328.328,0,0,1,.033.322l-8.86,20.248a.335.335,0,0,1-.328.2Zm-1.806-19.532,1.97,17.982,8.2-18.639Z" transform="translate(-67.873 -14.811)" fill="#231f20"/>
    <path id="Caminho_244" data-name="Caminho 244" d="M282.636,47.1a8.538,8.538,0,0,0-9.044-2.483c-2.811.906-5.372,2.476-8.19,3.376s-6.141,1.018-8.472-.795a4.755,4.755,0,0,0,5.484,4.6c-.105.657-1,.755-1.635.617s-1.451-.3-1.846.23a1.314,1.314,0,0,0-.085,1.169c.479,1.583,1.924,2.627,3.284,3.586,1.97,1.36,3.941,1.642,5.95,2.581,2.128,1,3.717,2.4,6.161,2.739a8.866,8.866,0,0,0,6.305-1.55c1.149-.814,3.487-1.924,3.028-3.671-.223-.828,1.235-2.4,1.314-3.619a8.88,8.88,0,0,0-2.253-6.778Z" transform="translate(-62.804 -0.154)" fill="#fff"/>
    <path id="Caminho_245" data-name="Caminho 245" d="M275.194,62.963a8.065,8.065,0,0,1-1.2-.085,11.993,11.993,0,0,1-4.407-1.773c-.585-.342-1.2-.657-1.852-1a20.584,20.584,0,0,0-2.22-.86,14.712,14.712,0,0,1-3.776-1.747c-1.517-1.051-2.916-2.128-3.409-3.757a1.622,1.622,0,0,1,.138-1.465,1.557,1.557,0,0,1,1.55-.479,5.385,5.385,0,0,1-1.773-.985,4.847,4.847,0,0,1-1.819-3.8.322.322,0,0,1,.184-.289.335.335,0,0,1,.341.039c2.765,2.148,6.64,1.235,8.177.742a35.671,35.671,0,0,0,4.079-1.616,36.5,36.5,0,0,1,4.111-1.694,8.853,8.853,0,0,1,9.385,2.568h0a9.2,9.2,0,0,1,2.338,7.008,5.5,5.5,0,0,1-.775,1.97c-.309.565-.657,1.208-.571,1.517.447,1.694-1.274,2.8-2.529,3.612-.223.144-.44.282-.624.414A9.359,9.359,0,0,1,275.194,62.963ZM259.642,52.455a.729.729,0,0,0-.617.23,1.084,1.084,0,0,0-.033.88c.427,1.425,1.734,2.423,3.153,3.409a13.891,13.891,0,0,0,3.619,1.662,23.745,23.745,0,0,1,2.286.893,20.718,20.718,0,0,1,1.9,1.018,11.316,11.316,0,0,0,4.171,1.694,8.63,8.63,0,0,0,6.069-1.491c.19-.138.414-.282.657-.433,1.149-.742,2.575-1.662,2.246-2.89a2.9,2.9,0,0,1,.657-1.97,5.288,5.288,0,0,0,.644-1.76,8.538,8.538,0,0,0-2.167-6.5h0a8.21,8.21,0,0,0-8.7-2.384,35.041,35.041,0,0,0-4.039,1.668,38.473,38.473,0,0,1-4.151,1.708c-3.166,1.011-6.115.834-8.21-.46a4.322,4.322,0,0,0,1.543,2.627,4.184,4.184,0,0,0,3.507.985.328.328,0,0,1,.289.085.3.3,0,0,1,.1.289.972.972,0,0,1-.434.657,2.167,2.167,0,0,1-1.6.21,4.761,4.761,0,0,0-.893-.131Z" transform="translate(-62.633)" fill="#231f20"/>
    <path id="Caminho_246" data-name="Caminho 246" d="M272.574,71.185l-1.589,6.239s1.767,4.072,5.983,3.284,5.057-3.941,5.064-3.941l.709-6.719.44-4.131a4.709,4.709,0,0,0,.151-1.3c-.263-.939-1.438-1.451-1.78-2.424a8.039,8.039,0,0,1,.256-5.964c-1.76,1.419-3.783,2.864-6.042,2.712a10.791,10.791,0,0,0,1.228-1.55l-4.42,1.576a10.823,10.823,0,0,1-1.76.42c-.657.125-.4-.289-.9.512-1.235,1.97-1.406,5.372-1.156,7.638C269.113,70.758,272.574,71.185,272.574,71.185Z" transform="translate(-66.83 -4.281)" fill="#fff"/>
    <path id="Caminho_247" data-name="Caminho 247" d="M275.722,80.9c-3.606,0-5.189-3.527-5.2-3.56a.309.309,0,0,1,0-.217l1.5-5.911a4.635,4.635,0,0,1-3.737-3.941c-.256-2.305-.085-5.747,1.208-7.848l.033-.059c.309-.493.407-.657.775-.6a.657.657,0,0,0,.309,0,10.6,10.6,0,0,0,1.708-.407l4.42-1.583a.328.328,0,0,1,.368.112.335.335,0,0,1,0,.381,11.756,11.756,0,0,1-.768,1.038c1.878-.171,3.6-1.432,5.083-2.627a.328.328,0,0,1,.407,0,.315.315,0,0,1,.1.394,7.743,7.743,0,0,0-.243,5.727,3.1,3.1,0,0,0,.828,1.117,3.284,3.284,0,0,1,.965,1.366,2.541,2.541,0,0,1-.072,1.051,2.029,2.029,0,0,1-.059.342L282.2,76.529s-.854,3.4-5.32,4.262A6.015,6.015,0,0,1,275.722,80.9Zm-4.558-3.724a5.129,5.129,0,0,0,5.576,2.969c3.973-.768,4.8-3.7,4.808-3.737l1.143-10.8a2.8,2.8,0,0,1,.066-.4,2.351,2.351,0,0,0,.085-.749,2.686,2.686,0,0,0-.8-1.077,3.717,3.717,0,0,1-.979-1.314,8.433,8.433,0,0,1-.138-5.11,8.246,8.246,0,0,1-5.353,2.075.322.322,0,0,1-.282-.21.335.335,0,0,1,.066-.348c.2-.21.4-.427.585-.657l-3.422,1.222a10.22,10.22,0,0,1-1.76.427,1.635,1.635,0,0,1-.512,0l-.177.282-.033.053c-1.13,1.839-1.373,5.057-1.117,7.435.322,2.949,3.4,3.4,3.533,3.409a.335.335,0,0,1,.23.144.315.315,0,0,1,.046.263Z" transform="translate(-66.668 -4.069)" fill="#231f20"/>
    <path id="Caminho_248" data-name="Caminho 248" d="M273.34,81.8a4.5,4.5,0,0,0,4.072-1.025c1.918-1.688,1.846-3.179,1.846-3.179a6.949,6.949,0,0,1-5.077.919Z" transform="translate(-68.437 -11.616)" fill="#39344f"/>
    <path id="Caminho_249" data-name="Caminho 249" d="M274.277,82.092a4.157,4.157,0,0,1-1.149-.145.328.328,0,0,1-.223-.394l.834-3.284a.328.328,0,0,1,.4-.236,6.7,6.7,0,0,0,4.814-.893.322.322,0,0,1,.506.256c0,.066.059,1.668-1.97,3.441A4.814,4.814,0,0,1,274.277,82.092Zm-.657-.7a4.2,4.2,0,0,0,3.455-1.025,5.123,5.123,0,0,0,1.622-2.312,7.034,7.034,0,0,1-4.4.7Z" transform="translate(-68.284 -11.438)" fill="#231f20"/>
    <path id="Caminho_250" data-name="Caminho 250" d="M277.539,64.06s-2.443,3.074-1.97,3.685,1.97.348,1.97.348" transform="translate(-69.181 -6.968)" fill="#fff"/>
    <path id="Caminho_251" data-name="Caminho 251" d="M276.669,68.315a1.97,1.97,0,0,1-1.53-.519c-.519-.657.788-2.627,1.97-4.092a.322.322,0,0,1,.46-.053.328.328,0,0,1,.053.46c-1.136,1.432-2.056,2.975-1.97,3.284.25.322,1.208.282,1.622.21a.335.335,0,0,1,.381.269.328.328,0,0,1-.269.381,5.36,5.36,0,0,1-.716.059Z" transform="translate(-69.014 -6.803)" fill="#231f20"/>
    <ellipse id="Elipse_140" data-name="Elipse 140" cx="0.539" cy="0.762" rx="0.539" ry="0.762" transform="translate(210.453 56.316) rotate(-0.24)" fill="#231f20"/>
    <ellipse id="Elipse_141" data-name="Elipse 141" cx="0.762" cy="0.539" rx="0.762" ry="0.539" transform="translate(205.165 57.265) rotate(-73.11)" fill="#231f20"/>
    <path id="Caminho_252" data-name="Caminho 252" d="M275.45,73.359a8.315,8.315,0,0,1-4.525-1.583.328.328,0,1,1,.4-.519c.151.118,3.737,2.837,6.837.539a.328.328,0,1,1,.387.525A5.1,5.1,0,0,1,275.45,73.359Z" transform="translate(-67.558 -9.411)" fill="#231f20"/>
    <path id="Caminho_253" data-name="Caminho 253" d="M288.1,67.748A2.627,2.627,0,0,1,289.994,67a1.832,1.832,0,0,1,1.616,1.143,2.325,2.325,0,0,1-.6,2.174,4.308,4.308,0,0,1-3.166,1.471" transform="translate(-73.413 -7.977)" fill="#fff"/>
    <path id="Caminho_254" data-name="Caminho 254" d="M287.668,71.977a.328.328,0,0,1-.328-.328.322.322,0,0,1,.322-.328,3.941,3.941,0,0,0,2.923-1.36,2,2,0,0,0,.539-1.852,1.491,1.491,0,0,0-1.314-.919,2.259,2.259,0,0,0-1.648.657.335.335,0,0,1-.466,0,.328.328,0,0,1,0-.466,2.936,2.936,0,0,1,2.141-.821,2.167,2.167,0,0,1,1.9,1.36,2.627,2.627,0,0,1-.657,2.5A4.637,4.637,0,0,1,287.662,72Z" transform="translate(-73.242 -7.826)" fill="#231f20"/>
    <path id="Caminho_255" data-name="Caminho 255" d="M139.583,164.734s7.454,30.606,2.535,32.734-32.911,6.22-32.911,6.22l-1.268-8.827s21.536-4.716,22.711-5.786-7.225-27.079-7.422-27.289S139.583,164.734,139.583,164.734Z" transform="translate(-11.667 -40.507)" fill="#fff"/>
    <path id="Caminho_256" data-name="Caminho 256" d="M109.034,203.867a.335.335,0,0,1-.19-.066.328.328,0,0,1-.131-.217l-1.274-8.827a.328.328,0,0,1,.256-.368c8.3-1.813,21.752-4.972,22.56-5.707.657-1.425-6.752-25.358-7.474-26.875a.322.322,0,0,1,0-.335c.151-.289.19-.368,16.7,2.791a.322.322,0,0,1,.256.243c.775,3.159,7.382,30.934,2.351,33.115-4.906,2.128-31.847,6.075-32.99,6.239Zm-.9-8.9,1.182,8.183c3.139-.466,27.959-4.177,32.5-6.147,1.064-.46,2.522-3.251.387-16.807-1.123-7.1-2.758-14.068-3.061-15.342-5.55-1.057-13.516-2.548-15.579-2.857,1.432,3.73,7.428,23.27,7.356,26.468a.906.906,0,0,1-.223.69C129.532,190.232,111.4,194.252,108.134,194.968Z" transform="translate(-11.494 -40.358)" fill="#231f20"/>
    <path id="Caminho_257" data-name="Caminho 257" d="M103.77,162.068l23.309,55.057,10.042-1.937L121.864,157.07Z" transform="translate(-10.236 -38.892)" fill="#fff"/>
    <path id="Caminho_258" data-name="Caminho 258" d="M126.908,217.265a.335.335,0,0,1-.3-.2L103.3,162a.335.335,0,0,1,.217-.447l18.088-4.991a.322.322,0,0,1,.256,0,.342.342,0,0,1,.151.2l15.237,58.164a.3.3,0,0,1-.039.256.322.322,0,0,1-.217.151l-10.016,1.931ZM104.053,162.1l23.053,54.466,9.438-1.819-15.106-57.455Z" transform="translate(-10.065 -38.71)" fill="#231f20"/>
    <path id="Caminho_259" data-name="Caminho 259" d="M108.681,53.855a9.589,9.589,0,0,0-11.4.263,8.328,8.328,0,0,0-3.008,8.321,7.4,7.4,0,0,0,6.811,5.392c3.015.151,6.187-2.43,7.789-4.794C110.809,60.18,112.109,56.22,108.681,53.855Z" transform="translate(-6.911 -2.865)" fill="#fff"/>
    <path id="Caminho_260" data-name="Caminho 260" d="M101.168,68h-.276a7.7,7.7,0,0,1-7.113-5.622,8.715,8.715,0,0,1,3.126-8.663,9.891,9.891,0,0,1,11.822-.269h0c4.177,2.857,1.55,7.671.236,9.589C107.342,65.47,104.229,68,101.168,68Zm1.754-15.763a9.011,9.011,0,0,0-5.609,1.97,8.052,8.052,0,0,0-2.9,7.986,7.034,7.034,0,0,0,6.509,5.143c2.758.125,5.872-2.233,7.507-4.65,1.2-1.78,3.6-6.18-.105-8.722a9.543,9.543,0,0,0-5.405-1.7Z" transform="translate(-6.741 -2.697)" fill="#231f20"/>
    <path id="Caminho_261" data-name="Caminho 261" d="M105.575,61.293a8.466,8.466,0,0,0-2.758,7.789,3.369,3.369,0,0,0,1.038,2.069c1.162.946,2.923.394,4.171-.433a15.94,15.94,0,0,0,4.854-5.432c.874-1.524,2.194-4.959-.171-5.806S107.309,59.8,105.575,61.293Z" transform="translate(-9.867 -5.298)" fill="#39344f"/>
    <path id="Caminho_262" data-name="Caminho 262" d="M105.166,71.8a2.627,2.627,0,0,1-1.694-.565,3.593,3.593,0,0,1-1.149-2.272,8.775,8.775,0,0,1,2.864-8.1c1.806-1.557,5.037-2.739,7.461-1.872a2.194,2.194,0,0,1,1.379,1.314c.657,1.865-.854,4.637-1.038,4.946a16.17,16.17,0,0,1-4.952,5.543,5.477,5.477,0,0,1-2.87,1Zm5.688-12.433a8.656,8.656,0,0,0-5.254,2,8.124,8.124,0,0,0-2.627,7.481,3.021,3.021,0,0,0,.919,1.872c1.031.834,2.627.309,3.79-.453a15.513,15.513,0,0,0,4.748-5.32c.585-1.025,1.458-3.1.985-4.387a1.511,1.511,0,0,0-.985-.939,4.6,4.6,0,0,0-1.576-.256ZM105.4,61.125Z" transform="translate(-9.695 -5.13)" fill="#231f20"/>
    <path id="Caminho_263" data-name="Caminho 263" d="M118.241,79.829a18.835,18.835,0,0,1-1.635,1.412,7.763,7.763,0,0,1-7.5.19c-5.55-2.857-5.418-9.346-4.269-14.626.466-2.148,2.036-6.627,4.932-4.387-.847-.657,2.627-2.831,3.159-3.034,3.691-1.5,7.612.657,9.773,3.658a28.931,28.931,0,0,1,3.231,5.523c.854,2.154-.079,5.11-1.314,6.942a9.464,9.464,0,0,1-3.822,3.284,21.684,21.684,0,0,0-2.3.834Z" transform="translate(-10.383 -5.195)" fill="#fff"/>
    <path id="Caminho_264" data-name="Caminho 264" d="M112.57,82.421a8.256,8.256,0,0,1-3.783-.913c-4.6-2.364-6.095-7.4-4.446-14.981.223-1.025,1.1-4.427,3.034-5.136a2.22,2.22,0,0,1,1.852.184c.532-1.13,3.212-2.627,3.4-2.706,3.987-1.622,8.065.814,10.167,3.77a28.614,28.614,0,0,1,3.284,5.589c.9,2.259-.053,5.34-1.314,7.225a9.733,9.733,0,0,1-3.941,3.4,6.568,6.568,0,0,1-1.064.361,5.1,5.1,0,0,0-1.2.453c-.085.059-.171.118-.25.184h0a6.928,6.928,0,0,0-.657.558,6.411,6.411,0,0,1-1.038.874A7.691,7.691,0,0,1,112.57,82.421Zm-4.486-20.5a1.379,1.379,0,0,0-.486.085c-1.314.473-2.213,2.8-2.627,4.657-1.576,7.225-.2,12.052,4.1,14.259a7.441,7.441,0,0,0,7.179-.171,6.4,6.4,0,0,0,.933-.782,8.5,8.5,0,0,1,.657-.611,3.285,3.285,0,0,1,.309-.217,4.926,4.926,0,0,1,1.366-.532,6.155,6.155,0,0,0,.965-.328,9.116,9.116,0,0,0,3.691-3.172c1.169-1.767,2.062-4.6,1.254-6.64a28.071,28.071,0,0,0-3.139-5.425c-1.97-2.752-5.734-5.031-9.385-3.54-.657.263-3.12,1.97-3.087,2.463h0a.323.323,0,0,1-.394.512,2.207,2.207,0,0,0-1.333-.532Zm9.983,17.693Z" transform="translate(-10.209 -5.008)" fill="#231f20"/>
    <path id="Caminho_265" data-name="Caminho 265" d="M125.153,71.748s2.174,4.735,1.648,8.538a5.464,5.464,0,0,1-3.816,4.6l.571,6.568s.328,3.363-3.842,3.205a7.113,7.113,0,0,1-5.911-3.6l-1.5-12.045s4.44-3.093,3.652-7.4C115.952,71.61,121.738,73.836,125.153,71.748Z" transform="translate(-13.164 -9.56)" fill="#fff"/>
    <path id="Caminho_266" data-name="Caminho 266" d="M119.824,94.819h-.3a7.389,7.389,0,0,1-6.174-3.776.657.657,0,0,1,0-.105L111.838,78.88a.309.309,0,0,1,.138-.309c.039,0,4.249-3.028,3.514-7.073a.355.355,0,0,1,.112-.315.348.348,0,0,1,.328-.053c.059,0,5.681,2.121,8.912.164a.335.335,0,0,1,.263,0,.322.322,0,0,1,.2.177c.092.2,2.213,4.867,1.681,8.709a5.872,5.872,0,0,1-3.8,4.794l.552,6.318a3.428,3.428,0,0,1-.854,2.483A3.993,3.993,0,0,1,119.824,94.819Zm-5.858-4.026a6.732,6.732,0,0,0,5.589,3.369,3.527,3.527,0,0,0,2.818-.867,2.745,2.745,0,0,0,.657-1.97l-.571-6.568a.335.335,0,0,1,.25-.348,5.09,5.09,0,0,0,3.566-4.335c.433-3.093-1.011-6.9-1.478-8.019-2.942,1.511-7.179.361-8.643-.112.342,3.757-2.916,6.469-3.7,7.067Z" transform="translate(-13.004 -9.388)" fill="#231f20"/>
    <path id="Caminho_267" data-name="Caminho 267" d="M113.008,80.023s-2.437-4.387-4.473-1.314,1.576,5.911,3.586,5.491" transform="translate(-11.664 -11.621)" fill="#fff"/>
    <path id="Caminho_268" data-name="Caminho 268" d="M111.509,84.4a4.466,4.466,0,0,1-3.4-1.97,3.514,3.514,0,0,1,0-4.092,2.292,2.292,0,0,1,1.97-1.241c1.662.066,3.015,2.469,3.074,2.575a.329.329,0,0,1-.578.315c-.335-.6-1.451-2.194-2.522-2.233a1.688,1.688,0,0,0-1.386.946,2.85,2.85,0,0,0,0,3.356A3.577,3.577,0,0,0,111.9,83.7a.336.336,0,1,1,.144.657A2.28,2.28,0,0,1,111.509,84.4Z" transform="translate(-11.499 -11.444)" fill="#231f20"/>
    <path id="Caminho_269" data-name="Caminho 269" d="M127.983,83.329a5.531,5.531,0,0,1-.913-.079.333.333,0,1,1,.112-.657,3.514,3.514,0,0,0,1.832-.125,10.089,10.089,0,0,0-2.154-3.1.322.322,0,0,1,0-.46.328.328,0,0,1,.466,0c.571.657,2.43,2.778,2.305,3.658a.552.552,0,0,1-.256.414,2.745,2.745,0,0,1-1.392.348Z" transform="translate(-18.128 -12.032)" fill="#231f20"/>
    <path id="Caminho_270" data-name="Caminho 270" d="M124.559,87.777a4.3,4.3,0,0,1-.657-.046,4.821,4.821,0,0,1-3.015-1.694.328.328,0,0,1,.125-.447.335.335,0,0,1,.447.125,4.308,4.308,0,0,0,2.627,1.379,4.555,4.555,0,0,0,3.75-1.543.328.328,0,1,1,.46.466,5.425,5.425,0,0,1-3.737,1.76Z" transform="translate(-16.097 -14.306)" fill="#231f20"/>
    <path id="Caminho_271" data-name="Caminho 271" d="M125.677,91.82a19.42,19.42,0,0,1-5.537.407s2.627,4.991,5.99,4.67Z" transform="translate(-15.854 -16.496)" fill="#39344f"/>
    <path id="Caminho_272" data-name="Caminho 272" d="M125.645,97.066c-3.35,0-5.865-4.65-5.97-4.854a.335.335,0,0,1,0-.348.341.341,0,0,1,.322-.131,19.423,19.423,0,0,0,5.412-.407.328.328,0,0,1,.269.059.322.322,0,0,1,.131.23l.453,5.077a.328.328,0,0,1-.3.361Zm-5.064-4.6c.755,1.2,2.719,3.941,5.018,3.941l-.394-4.368a21.121,21.121,0,0,1-4.624.414Z" transform="translate(-15.678 -16.324)" fill="#231f20"/>
    <ellipse id="Elipse_142" data-name="Elipse 142" cx="0.519" cy="0.906" rx="0.519" ry="0.906" transform="translate(105.976 65.814) rotate(-8.11)" fill="#231f20"/>
    <ellipse id="Elipse_143" data-name="Elipse 143" cx="0.519" cy="0.906" rx="0.519" ry="0.906" transform="translate(110.713 65.133) rotate(-8.11)" fill="#231f20"/>
    <path id="Caminho_273" data-name="Caminho 273" d="M222.206,94.379l-53.75-28.123A3.08,3.08,0,0,0,164,69.54l2.1,11.822L76.048,97.321A1.9,1.9,0,0,0,74.5,99.535l8.1,45.626a1.9,1.9,0,0,0,2.207,1.543l90.05-15.979,2.1,11.822a3.08,3.08,0,0,0,5.307,1.53l40.8-44.9a3.087,3.087,0,0,0-.854-4.794Z" transform="translate(-0.181 -7.601)" fill="#fff"/>
    <path id="Caminho_274" data-name="Caminho 274" d="M84.293,146.9a2.24,2.24,0,0,1-1.274-.407,2.207,2.207,0,0,1-.919-1.438L73.982,99.419a2.233,2.233,0,0,1,1.813-2.588L165.53,80.9l-2.036-11.5a3.409,3.409,0,0,1,4.932-3.606l53.757,28.13h0a3.4,3.4,0,0,1,.939,5.307l-40.773,44.9a3.409,3.409,0,0,1-5.872-1.7l-2.043-11.5-89.748,15.92A2,2,0,0,1,84.293,146.9Zm82.543-80.842a2.758,2.758,0,0,0-1.616.539,2.706,2.706,0,0,0-1.084,2.7l2.1,11.822a.335.335,0,0,1-.269.381L75.952,97.475a1.609,1.609,0,0,0-1.018.657,1.576,1.576,0,0,0-.3,1.162l8.1,45.626a1.583,1.583,0,0,0,1.832,1.281l90.044-15.979a.335.335,0,0,1,.381.263l2.1,11.822a2.745,2.745,0,0,0,4.742,1.366l40.8-44.9a2.752,2.752,0,0,0-.762-4.282l-53.75-28.11A2.726,2.726,0,0,0,166.837,66.055Z" transform="translate(0 -7.433)" fill="#231f20"/>
    <path id="Caminho_275" data-name="Caminho 275" d="M210.919,83.106c-.722-.243-1.458-.46-2.194-.657a2.384,2.384,0,0,0-1.419-.053,2.63,2.63,0,0,0-1.228,1.727,5.736,5.736,0,0,0-.407,3.284c.44,1.563,2.108,2.423,3.671,2.85a5.491,5.491,0,0,0,2.371.21C216.357,89.627,214.005,84.143,210.919,83.106Z" transform="translate(-45.172 -13.233)" fill="#fff"/>
    <path id="Caminho_276" data-name="Caminho 276" d="M210.891,90.677a6.988,6.988,0,0,1-1.806-.282c-1.228-.328-3.369-1.169-3.9-3.074a5.925,5.925,0,0,1,.414-3.455,2.785,2.785,0,0,1,1.419-1.931,2.627,2.627,0,0,1,1.616.046c.749.184,1.5.407,2.22.657a5.66,5.66,0,0,1,3.612,5.215c-.059.854-.519,2.345-2.864,2.772A4.367,4.367,0,0,1,210.891,90.677Zm-3.244-8.19a1.176,1.176,0,0,0-.407.066c-.552.2-.821.893-1.031,1.524a5.4,5.4,0,0,0-.407,3.067c.447,1.589,2.351,2.325,3.441,2.627a5.254,5.254,0,0,0,2.226.21c1.438-.256,2.24-1.011,2.325-2.174a5.066,5.066,0,0,0-3.166-4.545h0c-.709-.236-1.438-.447-2.167-.657A3.238,3.238,0,0,0,207.647,82.487Z" transform="translate(-45 -13.067)" fill="#231f20"/>
    <path id="Caminho_277" data-name="Caminho 277" d="M86.687,115.79a1.208,1.208,0,0,0,.506-.112c1.675-.729,1.438-3.822,1.583-5.333.079-.847.059-1.872-.657-2.312a5.02,5.02,0,0,0-5.326.525c-1.465,1.077-1.786,3.113-1.622,4.86.059.7.112,2.24.742,2.673.841.591,1.832-1.038,1.813-1.76v.585a2.305,2.305,0,0,0,.112.795.828.828,0,0,0,.558.545.978.978,0,0,0,.972-.657,10.91,10.91,0,0,1,.433-1.2.874.874,0,0,0,.151,1.176,1.064,1.064,0,0,0,.736.217Z" transform="translate(-2.465 -21.873)" fill="#fff"/>
    <path id="Caminho_278" data-name="Caminho 278" d="M84.351,116.422a1,1,0,0,1-.2,0,1.143,1.143,0,0,1-.8-.749V115.6a2.22,2.22,0,0,1-.657.657,1.018,1.018,0,0,1-1.169-.072c-.69-.479-.795-1.8-.86-2.673v-.236c-.151-1.649,0-3.882,1.76-5.156a5.315,5.315,0,0,1,5.688-.545c.913.552.906,1.76.828,2.627,0,.276-.039.6-.059.946-.066,1.681-.164,3.98-1.721,4.663a1.6,1.6,0,0,1-.657.138h0a1.465,1.465,0,0,1-.959-.309l-.079-.112A1.36,1.36,0,0,1,84.351,116.422Zm-.486-2.272v.578a2.154,2.154,0,0,0,.092.7.5.5,0,0,0,.322.335c.223.046.479-.21.6-.486a3.632,3.632,0,0,0,.158-.473l.1-.328a1.084,1.084,0,0,1,.23-.479.328.328,0,0,1,.532.374,1.668,1.668,0,0,0-.118.269.25.25,0,0,0,0,.1.585.585,0,0,0,.2.394.723.723,0,0,0,.519.158h0a1.064,1.064,0,0,0,.381-.079c1.182-.519,1.268-2.581,1.314-4.092a5.638,5.638,0,0,1,.053-.979c.105-1.09-.059-1.721-.506-1.97a4.713,4.713,0,0,0-4.965.506c-1.478,1.1-1.629,3.087-1.5,4.6v.243c.053.611.151,1.885.585,2.187a.361.361,0,0,0,.414,0,2.167,2.167,0,0,0,.887-1.491h0a.328.328,0,0,1,.315-.335.342.342,0,0,1,.342.322Z" transform="translate(-2.291 -21.697)" fill="#231f20"/>
    <path id="Caminho_279" data-name="Caminho 279" d="M292.563,105.91s4.033,19.381-.742,20.642c-6.482,1.747-33.41-4.86-33.41-4.86s-7.027,1.727-8.256-.125,0-4.44.617-4.6,5.911-.525,5.911-.525-4.308-3.172-2.955-3.415,6.167,1.353,6.167,1.353,26.376,1.97,26.133.6-1.465-6.5-1.465-6.5" transform="translate(-60.299 -21.332)" fill="#fff"/>
    <path id="Caminho_280" data-name="Caminho 280" d="M288.658,127.008c-9.1,0-28.708-4.735-30.382-5.143-1.038.25-7.225,1.648-8.538-.276a4.2,4.2,0,0,1-.217-3.829c.105-.263.506-1.13,1.044-1.241s3.553-.342,5.09-.466c-1.281-.992-2.8-2.345-2.627-3.041a.578.578,0,0,1,.519-.433c1.366-.25,5.629,1.136,6.285,1.353,9.247.657,24.11,1.5,25.719.841-.289-1.524-1.412-6.292-1.425-6.344a.337.337,0,0,1,.657-.151c.053.21,1.222,5.175,1.465,6.522a.42.42,0,0,1-.112.374c-1.064,1.189-20.452-.151-26.369-.591h-.079c-1.314-.44-4.9-1.524-5.977-1.353a12.657,12.657,0,0,0,3.067,2.837.335.335,0,0,1,.125.355.342.342,0,0,1-.3.236c-1.465.112-5.386.427-5.878.519a2.174,2.174,0,0,0-.657,1.1,3.435,3.435,0,0,0,.25,2.955c.808,1.208,5.254.657,7.881,0a.322.322,0,0,1,.158,0c.269.066,26.882,6.568,33.246,4.867,3.671-.972,1.609-14.955.506-20.261a.335.335,0,1,1,.657-.131c.42,2.016,3.941,19.7-.979,21.017A12.623,12.623,0,0,1,288.658,127.008Z" transform="translate(-60.137 -21.171)" fill="#231f20"/>
    <line id="Linha_43" data-name="Linha 43" x1="2.975" y1="12.59" transform="translate(221.316 74.595)" fill="#231f20"/>
    <path id="Caminho_281" data-name="Caminho 281" d="M301.135,103.457a.328.328,0,0,1-.315-.256l-2.975-12.59a.322.322,0,0,1,.243-.394.335.335,0,0,1,.394.243l2.975,12.59a.328.328,0,0,1-.243.394Z" transform="translate(-76.844 -15.943)" fill="#231f20"/>
    <path id="Caminho_282" data-name="Caminho 282" d="M198.352,55.973a.309.309,0,0,1-.25-.131.3.3,0,0,1,.079-.42,1.5,1.5,0,0,0,.657-1.451,5.214,5.214,0,0,1-.433-1.314.3.3,0,0,1,.552-.21,3.521,3.521,0,0,1,.466,1.314.933.933,0,0,0,.361.407.3.3,0,0,0,.315-.046c.6-.355,0-2.463-.565-3.77a.3.3,0,0,1,.151-.394.309.309,0,0,1,.4.151c.276.624,1.589,3.77.322,4.525a.867.867,0,0,1-.867.079.657.657,0,0,1-.151-.085,2.062,2.062,0,0,1-.88,1.268A.328.328,0,0,1,198.352,55.973Z" transform="translate(-42.595 -2.119)" fill="#231f20"/>
  </g>
</svg>
