<svg xmlns="http://www.w3.org/2000/svg" width="199" height="120.28" viewBox="0 0 199 120.28">
  <g id="_342_teacher_flatline" data-name="#342_teacher_flatline" transform="translate(-47.11 -57.59)">
    <rect id="Retângulo_903" data-name="Retângulo 903" width="125.369" height="93.474" transform="translate(120.422 57.915)" fill="#fff"/>
    <path id="Caminho_838" data-name="Caminho 838" d="M284.948,151.714H159.585a.325.325,0,0,1-.325-.325V57.915a.325.325,0,0,1,.325-.325H284.948a.325.325,0,0,1,.325.325v93.474A.325.325,0,0,1,284.948,151.714Zm-125.037-.651H284.623V58.241H159.911Z" transform="translate(-39.163)" fill="#231f20"/>
    <path id="Caminho_839" data-name="Caminho 839" d="M227.465,140.871H187.245a.325.325,0,0,1,0-.651h40.219a.325.325,0,0,1,0,.651Z" transform="translate(-48.822 -28.855)" fill="#d1d3d4"/>
    <path id="Caminho_840" data-name="Caminho 840" d="M227.465,149.651H187.245a.325.325,0,0,1,0-.651h40.219a.325.325,0,0,1,0,.651Z" transform="translate(-48.822 -31.921)" fill="#d1d3d4"/>
    <path id="Caminho_841" data-name="Caminho 841" d="M227.465,158.371H187.245a.325.325,0,0,1,0-.651h40.219a.325.325,0,0,1,0,.651Z" transform="translate(-48.822 -34.966)" fill="#d1d3d4"/>
    <path id="Caminho_842" data-name="Caminho 842" d="M281.516,149.151H170.985a.325.325,0,0,1-.325-.325V66.415a.325.325,0,0,1,.325-.325H281.516a.325.325,0,0,1,.325.325v82.41A.325.325,0,0,1,281.516,149.151Zm-110.2-.651H281.185V66.741H171.311Z" transform="translate(-43.144 -2.968)" fill="#d1d3d4"/>
    <path id="Caminho_843" data-name="Caminho 843" d="M307.861,125.661H267.089a.319.319,0,0,1-.319-.325.338.338,0,0,1,.072-.208c.4-1.718.176-27.431-.072-44.495a.319.319,0,0,1,.208-.306.312.312,0,0,1,.358.085l40.766,44.7a.332.332,0,0,1,.052.351.325.325,0,0,1-.293.2Zm-40.395-.651h39.653l-39.7-43.532C267.655,96.838,267.915,121.028,267.466,125.011Z" transform="translate(-76.706 -7.931)" fill="#d1d3d4"/>
    <path id="Caminho_844" data-name="Caminho 844" d="M316.565,148.786a.325.325,0,0,1-.325-.312c0-.091-.28-8.805,7.217-10.478a.333.333,0,0,1,.143.651c-6.977,1.549-6.71,9.762-6.71,9.814a.332.332,0,0,1-.312.338Z" transform="translate(-93.981 -28.075)" fill="#d1d3d4"/>
    <path id="Caminho_845" data-name="Caminho 845" d="M273.766,146.857a.325.325,0,0,1-.325-.325v-4.881H267.1a.332.332,0,0,1-.325-.325A.325.325,0,0,1,267.1,141h6.671a.325.325,0,0,1,.325.325v5.206A.325.325,0,0,1,273.766,146.857Z" transform="translate(-76.706 -29.127)" fill="#d1d3d4"/>
    <path id="Caminho_846" data-name="Caminho 846" d="M257.708,106.989v-.436a2.745,2.745,0,0,1,.039-.488,1.724,1.724,0,0,1,.13-.417,1.535,1.535,0,0,1,.228-.377,3.7,3.7,0,0,1,.358-.384l.514-.495a2.319,2.319,0,0,0,.371-.43,1.061,1.061,0,0,0,.156-.586,1.074,1.074,0,0,0-.28-.748,1.035,1.035,0,0,0-.794-.3,1.126,1.126,0,0,0-.84.358,1.113,1.113,0,0,0-.234.384,1.489,1.489,0,0,0-.091.443l-1.406-.124a2.857,2.857,0,0,1,.293-.976,2.336,2.336,0,0,1,.573-.729,2.6,2.6,0,0,1,.814-.449,3.019,3.019,0,0,1,.983-.156,3.13,3.13,0,0,1,.931.143,2.408,2.408,0,0,1,.774.423,1.991,1.991,0,0,1,.534.69,2.212,2.212,0,0,1,.2.95,2.3,2.3,0,0,1-.085.651,1.985,1.985,0,0,1-.228.508,2.7,2.7,0,0,1-.358.436c-.143.143-.3.286-.475.443s-.273.241-.371.338a1.739,1.739,0,0,0-.228.3.943.943,0,0,0-.117.319,1.955,1.955,0,0,0-.039.423v.3Zm-.228,1.588a.859.859,0,0,1,.267-.651.9.9,0,0,1,.651-.26.937.937,0,0,1,.651.247.814.814,0,0,1,.273.651.859.859,0,0,1-.267.651.892.892,0,0,1-.651.26.917.917,0,0,1-.351-.072.963.963,0,0,1-.293-.182.788.788,0,0,1-.2-.273A.852.852,0,0,1,257.48,108.577Z" transform="translate(-72.897 -15.187)" fill="#d1d3d4"/>
    <path id="Caminho_847" data-name="Caminho 847" d="M217.087,142.478c-1.705.215-8.285,5.037-9.99,5.356,0,0-2.916,2.922-6.417,6.013a59.177,59.177,0,0,1,4.614,10.126c3.033-3.352,5.707-6.71,6.508-7.653a27.839,27.839,0,0,1,2.167-2.6,36.869,36.869,0,0,1,4.1-2.857,11.291,11.291,0,0,0,3.612-3.768,3.3,3.3,0,0,0,.456-2C221.837,143.35,218.583,142.282,217.087,142.478Z" transform="translate(-53.627 -29.635)" fill="#fff"/>
    <path id="Caminho_848" data-name="Caminho 848" d="M205.12,164.107h-.059a.325.325,0,0,1-.247-.208,58.856,58.856,0,0,0-4.588-10.074.319.319,0,0,1,.065-.4c3.449-3.046,6.371-5.974,6.4-6a.351.351,0,0,1,.176-.091,24.937,24.937,0,0,0,4.686-2.558c2.245-1.38,4.373-2.681,5.317-2.8h0c1.62-.2,5.076.9,5.389,2.89a3.56,3.56,0,0,1-.488,2.206,11.786,11.786,0,0,1-3.71,3.9c-.482.338-1,.651-1.49.97a16.978,16.978,0,0,0-2.6,1.855,14.206,14.206,0,0,0-1.451,1.705c-.228.3-.449.592-.651.872l-.527.651c-1.113,1.367-3.43,4.211-5.961,7.022a.358.358,0,0,1-.254.065Zm-4.2-10.413a59.873,59.873,0,0,1,4.347,9.476c2.375-2.662,4.517-5.291,5.571-6.586l.534-.651c.228-.273.449-.56.651-.853a15.239,15.239,0,0,1,1.516-1.783,17.375,17.375,0,0,1,2.681-1.952c.488-.306,1-.651,1.458-.95a11.252,11.252,0,0,0,3.514-3.657,2.942,2.942,0,0,0,.416-1.8c-.234-1.516-3.306-2.512-4.66-2.343h0c-.807.1-3.065,1.49-5.057,2.72a25.989,25.989,0,0,1-4.809,2.6c-.449.488-3.078,3.085-6.163,5.825Z" transform="translate(-53.453 -29.457)" fill="#231f20"/>
    <path id="Caminho_849" data-name="Caminho 849" d="M215.05,141.782l24.372-32.292.5.267L216.4,142.511Z" transform="translate(-58.646 -18.124)" fill="#231f20"/>
    <path id="Caminho_850" data-name="Caminho 850" d="M216.229,142.662a.345.345,0,0,1-.156-.039l-1.354-.729a.338.338,0,0,1-.163-.221.312.312,0,0,1,.059-.26l24.372-32.292a.319.319,0,0,1,.41-.091l.508.267a.319.319,0,0,1,.163.215.332.332,0,0,1-.052.26L216.5,142.525A.319.319,0,0,1,216.229,142.662Zm-.866-1.165.768.417,21.281-29.631Z" transform="translate(-58.47 -17.949)" fill="#39344f"/>
    <path id="Caminho_851" data-name="Caminho 851" d="M209.7,147.725a70.5,70.5,0,0,0,4.556-6.1,2.375,2.375,0,0,1,.651-.651,2.232,2.232,0,0,1,1.028-.241,22.03,22.03,0,0,1,6.462.54,3.254,3.254,0,0,1,1.777.879.807.807,0,0,1,.234.527c0,.351-.332.605-.651.774a8.707,8.707,0,0,1-3.254.8,26.168,26.168,0,0,1-3.768-.2,3.555,3.555,0,0,1,.208,2.746,8.259,8.259,0,0,1-1.952,2.707" transform="translate(-56.777 -29.019)" fill="#fff"/>
    <path id="Caminho_852" data-name="Caminho 852" d="M214.848,149.688a.338.338,0,0,1-.228-.091.325.325,0,0,1,0-.462l.059-.059a7.647,7.647,0,0,0,1.816-2.532,3.9,3.9,0,0,0-.085-2.362.312.312,0,0,1-.143-.28.332.332,0,0,1,.325-.319,12.881,12.881,0,0,1,1.666.137,7.744,7.744,0,0,0,2.07.065,8.35,8.35,0,0,0,3.13-.768c.143-.072.469-.267.469-.488a.553.553,0,0,0-.156-.312,3,3,0,0,0-1.607-.768,21.769,21.769,0,0,0-6.358-.54,2.063,2.063,0,0,0-.885.2,2.186,2.186,0,0,0-.54.553c-.273.351-.651.892-1.08,1.516a46.206,46.206,0,0,1-3.514,4.6.327.327,0,0,1-.482-.443,44.618,44.618,0,0,0,3.462-4.556c.436-.651.813-1.171,1.1-1.536a2.07,2.07,0,0,1,1.894-1,22.186,22.186,0,0,1,6.554.553,3.521,3.521,0,0,1,1.952.976,1.132,1.132,0,0,1,.312.742c0,.286-.143.7-.813,1.061a9.209,9.209,0,0,1-3.371.84,8.461,8.461,0,0,1-2.219-.072c-.319-.046-.651-.085-1.048-.111a4.555,4.555,0,0,1,0,2.519,8.233,8.233,0,0,1-1.952,2.753l-.059.059A.338.338,0,0,1,214.848,149.688Z" transform="translate(-56.609 -28.848)" fill="#231f20"/>
    <path id="Caminho_853" data-name="Caminho 853" d="M154.4,132s9.254,31.336,12.1,29.839,19.628-16.172,19.628-16.172l7.347,9.762s-22.42,35.631-29.559,31.824S149.35,163.31,149.35,163.31Z" transform="translate(-35.703 -25.984)" fill="#39344f"/>
    <path id="Caminho_854" data-name="Caminho 854" d="M80.385,156.1l-10.745-2.72c.41-.742,6.937-20.35,12.918-24.171,5.141-4.276,15.463-4.692,27.145-5.148a36.054,36.054,0,0,1,11.122,1.087c13.628,3.768,7.725,31.564,7.725,31.564s1.49,13.309,3.833,39.607c0,0-19.172,3.7-52.6,1.829C79.779,198.189,80.7,159.558,80.385,156.1Z" transform="translate(-7.868 -23.189)" fill="#39344f"/>
    <path id="Caminho_855" data-name="Caminho 855" d="M134.952,170.52l-3.41,6.664-7.022-5.6,1.633-25.687-1.633-2.043,2.057-3.137,2.857,2.922-1.887,2.167Z" transform="translate(-27.032 -29.029)" fill="#fff"/>
    <path id="Caminho_856" data-name="Caminho 856" d="M122.831,106.551l1.744,8.747s-2.746,5.812-8.59,4.842S109,114.8,109,114.8l-2.4-16.738s-4.992-6.287-2.48-13.074,18.32-7.068,19.726,2.31c0,0,3.339,9.847,2.974,14.317S122.831,106.551,122.831,106.551Z" transform="translate(-19.662 -7.844)" fill="#fff"/>
    <path id="Caminho_857" data-name="Caminho 857" d="M117.113,120.4a8.042,8.042,0,0,1-1.3-.117c-5.987-.989-7.2-5.389-7.25-5.577l-2.395-16.693c-.547-.735-4.874-6.833-2.473-13.315,1.106-2.981,5.33-5.681,11.278-5.063,3.9.4,8.343,2.564,9.111,7.439.124.351,3.339,9.905,2.974,14.422-.319,3.866-2.968,4.887-3.9,5.135l1.679,8.46a.312.312,0,0,1,0,.2C124.695,115.315,122.228,120.4,117.113,120.4ZM113.455,80.2c-3.827,0-8,1.523-9.183,4.712-2.421,6.508,2.375,12.7,2.427,12.762a.332.332,0,0,1,.065.156l2.4,16.738c.039.137,1.158,4.146,6.716,5.07,5.206.859,7.81-3.814,8.2-4.556l-1.725-8.649a.3.3,0,0,1,.059-.254.325.325,0,0,1,.221-.13c.137,0,3.365-.443,3.7-4.608.358-4.386-2.922-14.116-2.955-14.213-.586-3.9-3.768-6.462-8.512-6.95a12.691,12.691,0,0,0-1.419-.078Z" transform="translate(-19.508 -7.666)" fill="#231f20"/>
    <path id="Caminho_858" data-name="Caminho 858" d="M125.741,102.738s-.592-1.764-7.1-.651-6.287,8.3-10.152,5.122-1.8-8.779-2.193-13.986c-.514-6.671-1.952-6.508-3.378-5.786-5.044,2.447-3.436,12.97,3.423,22.342,2.427,3.319,17.571,9.5,19.582.482C127.049,105.256,125.741,102.738,125.741,102.738Z" transform="translate(-18.458 -10.304)" fill="#d1d3d4"/>
    <path id="Caminho_859" data-name="Caminho 859" d="M119.034,115.132c-5.206,0-11.571-3.182-13.127-5.3-4.855-6.638-7.321-14.278-6.144-19.016A5.473,5.473,0,0,1,102.6,87a2.07,2.07,0,0,1,1.952-.169c1.009.579,1.581,2.5,1.868,6.222a33.53,33.53,0,0,1-.078,4.718c-.228,3.553-.436,6.911,2.161,9.04a2.4,2.4,0,0,0,1.666.729c.716-.072,1.3-.826,2.1-1.777a9.7,9.7,0,0,1,6.124-4.126c6.352-1.113,7.328.514,7.452.82s1.3,2.824.208,7.731a5.9,5.9,0,0,1-4.855,4.738A10.777,10.777,0,0,1,119.034,115.132Zm-15.19-27.848a2.33,2.33,0,0,0-.957.3,4.777,4.777,0,0,0-2.493,3.384c-1.139,4.556,1.3,11.988,6.033,18.476,1.653,2.258,9.476,5.922,14.656,4.842a5.206,5.206,0,0,0,4.354-4.243c1.08-4.835-.15-7.289-.163-7.308,0-.059-.827-1.458-6.742-.43a8.934,8.934,0,0,0-5.734,3.9c-.827,1.028-1.542,1.952-2.532,2.017a2.922,2.922,0,0,1-2.141-.872c-2.857-2.336-2.6-5.857-2.395-9.58a34.344,34.344,0,0,0,.078-4.627c-.26-3.345-.781-5.265-1.549-5.707A.742.742,0,0,0,103.844,87.285Z" transform="translate(-18.285 -10.152)" fill="#231f20"/>
    <path id="Caminho_860" data-name="Caminho 860" d="M107.449,105.156a4.5,4.5,0,0,0-2.414-2.486,3.612,3.612,0,0,0-2.772-.208,2.694,2.694,0,0,0-1.581,3.345,6.8,6.8,0,0,0,.573,1.712,4.556,4.556,0,0,0,6.2,1.952" transform="translate(-18.676 -15.605)" fill="#fff"/>
    <path id="Caminho_861" data-name="Caminho 861" d="M105.126,110.141a4.823,4.823,0,0,1-1.451-.221,4.887,4.887,0,0,1-2.883-2.427,7.159,7.159,0,0,1-.605-1.8,2.994,2.994,0,0,1,1.79-3.716A3.9,3.9,0,0,1,105,102.2a4.77,4.77,0,0,1,2.6,2.675.325.325,0,1,1-.618.2,4.185,4.185,0,0,0-2.239-2.291,3.293,3.293,0,0,0-2.525-.2,2.35,2.35,0,0,0-1.373,2.968,6.508,6.508,0,0,0,.54,1.64,4.243,4.243,0,0,0,5.76,1.79.328.328,0,1,1,.306.579A4.933,4.933,0,0,1,105.126,110.141Z" transform="translate(-18.5 -15.429)" fill="#231f20"/>
    <path id="Caminho_862" data-name="Caminho 862" d="M131.6,101.278h-.495a5.512,5.512,0,0,1-5-5.974h0a5.506,5.506,0,1,1,5.493,5.987Zm-4.848-5.935a4.855,4.855,0,1,0,5.265-4.407,4.861,4.861,0,0,0-5.265,4.407Z" transform="translate(-27.579 -11.415)" fill="#231f20"/>
    <path id="Caminho_863" data-name="Caminho 863" d="M114.921,102.045h-.495a5.5,5.5,0,0,1-5-5.968h0a5.482,5.482,0,1,1,5.493,5.987Zm0-10.354a4.869,4.869,0,1,0,.443.02,1.928,1.928,0,0,0-.462-.039Z" transform="translate(-21.754 -11.687)" fill="#231f20"/>
    <path id="Caminho_864" data-name="Caminho 864" d="M160.537,180.57a.319.319,0,0,1-.319-.293l-3.6-39.7a.327.327,0,0,1,.651-.059l3.6,39.7a.325.325,0,0,1-.293.351Z" transform="translate(-38.241 -28.856)" fill="#231f20"/>
    <path id="Caminho_865" data-name="Caminho 865" d="M126.284,106.6a6.508,6.508,0,0,1-.853-.052.332.332,0,0,1-.273-.371.325.325,0,0,1,.371-.273c.482.072,1.952.137,2.369-.43.26-.351-.787-2.3-2.239-4.165a.327.327,0,0,1,.514-.4c.911,1.171,2.948,4,2.252,4.953A2.674,2.674,0,0,1,126.284,106.6Z" transform="translate(-27.254 -15.083)" fill="#231f20"/>
    <ellipse id="Elipse_162" data-name="Elipse 162" cx="0.748" cy="1.048" rx="0.748" ry="1.048" transform="translate(93.621 84.624) rotate(-1.33)" fill="#231f20"/>
    <ellipse id="Elipse_163" data-name="Elipse 163" cx="0.748" cy="1.048" rx="0.748" ry="1.048" transform="translate(100.381 84.158) rotate(-18.47)" fill="#231f20"/>
    <path id="Caminho_866" data-name="Caminho 866" d="M127.654,118.88a6.788,6.788,0,0,1-4.113-1.49.327.327,0,1,1,.436-.488c.156.143,3.827,3.352,7.868-.553a.319.319,0,0,1,.456,0,.325.325,0,0,1,0,.462A6.6,6.6,0,0,1,127.654,118.88Z" transform="translate(-26.652 -20.485)" fill="#231f20"/>
    <path id="Caminho_867" data-name="Caminho 867" d="M133.262,204s9.632-1.2,12.189-.651A18.587,18.587,0,0,1,155.468,210a4.751,4.751,0,0,1,1.009,2.083,1.952,1.952,0,0,1-.9,2c-.866.423-1.861-.085-2.766-.384-2.057-.683-4.289-.28-6.436,0a10.413,10.413,0,0,1-2.545.1c-1.952-.228-3.6-1.386-5.389-2.141-3.254-1.367-7.009-1.263-10.413-.722" transform="translate(-28.258 -50.851)" fill="#fff"/>
    <path id="Caminho_868" data-name="Caminho 868" d="M154.662,214.423a5.206,5.206,0,0,1-1.692-.4l-.449-.163a12.766,12.766,0,0,0-5.662-.072l-.651.085a10.575,10.575,0,0,1-2.6.1,11.877,11.877,0,0,1-3.9-1.406c-.521-.26-1.054-.534-1.588-.755-2.694-1.132-6.039-1.367-10.244-.7a.332.332,0,0,1-.371-.273.325.325,0,0,1,.273-.371c4.321-.683,7.81-.443,10.595.742.553.234,1.1.508,1.627.768a11.161,11.161,0,0,0,3.67,1.347,10,10,0,0,0,2.46-.1l.651-.085a13.235,13.235,0,0,1,5.955.1l.469.169a2.735,2.735,0,0,0,2.057.234,1.608,1.608,0,0,0,.722-1.66,4.465,4.465,0,0,0-.957-1.952,18.151,18.151,0,0,0-9.821-6.508c-2.466-.553-11.988.618-12.079.651a.319.319,0,0,1-.364-.286.325.325,0,0,1,.28-.364c.4-.046,9.723-1.2,12.307-.651a18.938,18.938,0,0,1,10.2,6.768,5.1,5.1,0,0,1,1.074,2.232,2.232,2.232,0,0,1-1.08,2.336A2,2,0,0,1,154.662,214.423Z" transform="translate(-28.071 -50.682)" fill="#231f20"/>
    <path id="Caminho_869" data-name="Caminho 869" d="M65.986,167.8S55.43,199.213,60.6,202.779,107.11,204.6,107.11,204.6l2.6-14.819s-28.466,3.657-27.756,1.549S86.122,165.3,86.122,165.3Z" transform="translate(-4.214 -37.613)" fill="#39344f"/>
    <rect id="Retângulo_904" data-name="Retângulo 904" width="69.219" height="2.597" rx="1.298" transform="translate(113.888 164.424)" fill="#231f20"/>
    <path id="Caminho_870" data-name="Caminho 870" d="M217.471,224.484H150.8a1.627,1.627,0,0,1,0-3.254h66.674a1.627,1.627,0,0,1,0,3.254Zm-66.674-2.6a.944.944,0,0,0-.944.944.957.957,0,0,0,.944,1h66.674a.95.95,0,0,0,.95-.944.963.963,0,0,0-.95-1Z" transform="translate(-35.64 -57.144)" fill="#231f20"/>
    <path id="Caminho_871" data-name="Caminho 871" d="M207.852,172.06h40.792l-16.322,33.6H191.53Z" transform="translate(-50.432 -39.974)" fill="#39344f"/>
    <path id="Caminho_872" data-name="Caminho 872" d="M232.154,205.811H191.362a.325.325,0,0,1-.273-.15.332.332,0,0,1,0-.312l16.322-33.607a.332.332,0,0,1,.293-.182H248.5a.319.319,0,0,1,.273.156.332.332,0,0,1,0,.312l-16.322,33.6a.332.332,0,0,1-.293.182Zm-40.271-.651h40.063l16.01-32.95H207.893Z" transform="translate(-50.265 -39.799)" fill="#231f20"/>
    <path id="Caminho_873" data-name="Caminho 873" d="M120.369,187.32h0l-30.4-2.226a.319.319,0,0,1-.234-.137.306.306,0,0,1-.052-.267l6.781-27.132a.319.319,0,0,1,.39-.234.312.312,0,0,1,.234.39l-6.684,26.728,29.989,2.2a.325.325,0,1,1,0,.651Z" transform="translate(-14.863 -34.824)" fill="#231f20"/>
    <path id="Caminho_874" data-name="Caminho 874" d="M114.825,223.593a.325.325,0,0,1-.312-.241.319.319,0,0,1,.221-.4A103.4,103.4,0,0,0,127,218.784a.325.325,0,0,1,.43.156.319.319,0,0,1-.15.43c-3.729,1.79-12.02,4.113-12.365,4.211Z" transform="translate(-23.533 -56.279)" fill="#231f20"/>
    <rect id="Retângulo_905" data-name="Retângulo 905" width="172.949" height="10.556" rx="4.87" transform="translate(47.435 166.989)" fill="#fff"/>
    <path id="Caminho_875" data-name="Caminho 875" d="M217.215,236.383H50.611a3.495,3.495,0,0,1-3.5-3.521v-4.224A3.488,3.488,0,0,1,50.6,225.15H217.2a3.488,3.488,0,0,1,3.488,3.488v4.224a3.495,3.495,0,0,1-3.475,3.521Zm-166.6-10.556a2.837,2.837,0,0,0-2.837,2.837v4.2a2.844,2.844,0,0,0,2.837,2.844h166.6a2.844,2.844,0,0,0,2.837-2.844v-4.224a2.844,2.844,0,0,0-2.837-2.837Z" transform="translate(0 -58.513)" fill="#231f20"/>
    <path id="Caminho_876" data-name="Caminho 876" d="M313.542,106.958a1.067,1.067,0,0,0-.41-.332,1.3,1.3,0,0,0-.56-.13,1.21,1.21,0,0,0-.566.13,1.243,1.243,0,0,0-.4.351,1.458,1.458,0,0,0-.241.482,1.953,1.953,0,0,0-.078.547,1.705,1.705,0,0,0,.085.54,1.439,1.439,0,0,0,.247.488,1.217,1.217,0,0,0,1,.475,1.49,1.49,0,0,0,.553-.1,1.028,1.028,0,0,0,.436-.312l.735.742a1.887,1.887,0,0,1-.748.482,2.714,2.714,0,0,1-.983.176,2.889,2.889,0,0,1-.983-.169,2.285,2.285,0,0,1-.814-.488,2.226,2.226,0,0,1-.547-.781,2.6,2.6,0,0,1-.2-1.048,2.48,2.48,0,0,1,.2-1.028,2.324,2.324,0,0,1,.54-.787,2.4,2.4,0,0,1,.8-.495,2.732,2.732,0,0,1,1.978.02,1.913,1.913,0,0,1,.768.534Z" transform="translate(-91.823 -16.737)" fill="#d1d3d4"/>
    <path id="Caminho_877" data-name="Caminho 877" d="M212.126,107.678H209.92v-.716l2.03-3.072h.97v3.091h.651v.7h-.651v.989h-.794Zm0-2.837h0l-1.36,2.141h1.373Z" transform="translate(-56.854 -16.168)" fill="#d1d3d4"/>
    <path id="Caminho_878" data-name="Caminho 878" d="M219.587,104.612h-1.952l-.046,1.035a1.458,1.458,0,0,1,.273-.052h.286a2.1,2.1,0,0,1,.651.1,1.464,1.464,0,0,1,.521.293,1.354,1.354,0,0,1,.351.475,1.627,1.627,0,0,1,.124.651,1.77,1.77,0,0,1-.137.709,1.654,1.654,0,0,1-.377.527,1.693,1.693,0,0,1-.553.332,1.952,1.952,0,0,1-.651.117,1.783,1.783,0,0,1-1.009-.28,1.6,1.6,0,0,1-.6-.768l.735-.267a.937.937,0,0,0,.332.456.963.963,0,0,0,.56.169.983.983,0,0,0,.345-.059,1.055,1.055,0,0,0,.286-.176.878.878,0,0,0,.189-.286.95.95,0,0,0,.072-.39,1.028,1.028,0,0,0-.091-.456.859.859,0,0,0-.247-.3.93.93,0,0,0-.338-.15,1.548,1.548,0,0,0-.384-.046h-.293a2.331,2.331,0,0,0-.293.059l-.286.085-.241.1.078-2.6h2.72Z" transform="translate(-59.141 -16.168)" fill="#d1d3d4"/>
    <path id="Caminho_879" data-name="Caminho 879" d="M222.76,104.953a1.262,1.262,0,0,1,.1-.495,1.373,1.373,0,0,1,.267-.4,1.274,1.274,0,0,1,1.38-.267,1.373,1.373,0,0,1,.4.267,1.243,1.243,0,0,1,.364.892,1.21,1.21,0,0,1-.1.488,1.243,1.243,0,0,1-.651.651,1.3,1.3,0,0,1-1.38-.267,1.373,1.373,0,0,1-.267-.4A1.211,1.211,0,0,1,222.76,104.953Zm1.861,0a.6.6,0,1,0-.176.43.586.586,0,0,0,.176-.43Zm2.122-1.393.566.26-2.811,4.946-.56-.254Zm-.761,3.82a1.21,1.21,0,0,1,.1-.488,1.23,1.23,0,0,1,.273-.4,1.254,1.254,0,0,1,1.77,0,1.23,1.23,0,0,1,.273.4,1.235,1.235,0,0,1-.273,1.373,1.185,1.185,0,0,1-.4.267,1.269,1.269,0,0,1-.976,0,1.184,1.184,0,0,1-.4-.267,1.3,1.3,0,0,1-.273-.4,1.21,1.21,0,0,1-.1-.488Zm1.861,0a.586.586,0,0,0-.176-.436.573.573,0,0,0-.43-.176.612.612,0,1,0,0,1.217.573.573,0,0,0,.43-.176A.586.586,0,0,0,227.843,107.38Z" transform="translate(-61.338 -16.053)" fill="#d1d3d4"/>
    <path id="Caminho_880" data-name="Caminho 880" d="M293.9,153.43v3.3h.033a1.823,1.823,0,0,1,.221-.241,1.986,1.986,0,0,1,.332-.241,1.848,1.848,0,0,1,.443-.176,1.952,1.952,0,0,1,.579-.078,2.252,2.252,0,0,1,1.646.716,2.324,2.324,0,0,1,.469.788,2.747,2.747,0,0,1,.163.963,2.982,2.982,0,0,1-.156.976,2.525,2.525,0,0,1-.462.794,2.148,2.148,0,0,1-1.692.735,2.057,2.057,0,0,1-.931-.215,1.588,1.588,0,0,1-.683-.651h0v.7H292.75V153.43Zm2.694,5.031a1.731,1.731,0,0,0-.085-.54,1.5,1.5,0,0,0-.247-.488,1.244,1.244,0,0,0-1.022-.475,1.185,1.185,0,0,0-.573.137,1.445,1.445,0,0,0-.436.351,1.386,1.386,0,0,0-.273.488,1.614,1.614,0,0,0-.1.547,1.587,1.587,0,0,0,.1.547,1.36,1.36,0,0,0,.273.482,1.445,1.445,0,0,0,.436.351,1.354,1.354,0,0,0,1.171,0,1.3,1.3,0,0,0,.423-.351,1.439,1.439,0,0,0,.247-.488,1.783,1.783,0,0,0,.085-.56Z" transform="translate(-85.779 -33.468)" fill="#d1d3d4"/>
    <path id="Caminho_881" data-name="Caminho 881" d="M293.9,153.43v3.3h.033a1.823,1.823,0,0,1,.221-.241,1.986,1.986,0,0,1,.332-.241,1.848,1.848,0,0,1,.443-.176,1.952,1.952,0,0,1,.579-.078,2.252,2.252,0,0,1,1.646.716,2.324,2.324,0,0,1,.469.788,2.747,2.747,0,0,1,.163.963,2.982,2.982,0,0,1-.156.976,2.525,2.525,0,0,1-.462.794,2.148,2.148,0,0,1-1.692.735,2.057,2.057,0,0,1-.931-.215,1.588,1.588,0,0,1-.683-.651h0v.7H292.75V153.43Zm2.694,5.031a1.731,1.731,0,0,0-.085-.54,1.5,1.5,0,0,0-.247-.488,1.244,1.244,0,0,0-1.022-.475,1.185,1.185,0,0,0-.573.137,1.445,1.445,0,0,0-.436.351,1.386,1.386,0,0,0-.273.488,1.614,1.614,0,0,0-.1.547,1.587,1.587,0,0,0,.1.547,1.36,1.36,0,0,0,.273.482,1.445,1.445,0,0,0,.436.351,1.354,1.354,0,0,0,1.171,0,1.3,1.3,0,0,0,.423-.351,1.439,1.439,0,0,0,.247-.488,1.783,1.783,0,0,0,.085-.56Z" transform="translate(-85.779 -33.468)" fill="#d1d3d4"/>
    <path id="Caminho_882" data-name="Caminho 882" d="M217.392,105.887H183.447a.325.325,0,0,1-.306-.215.338.338,0,0,1,.1-.364l33.945-26.585a.325.325,0,1,1,.4.508L184.4,105.262h33a.332.332,0,0,1,.325.325.325.325,0,0,1-.338.3Z" transform="translate(-47.497 -7.349)" fill="#d1d3d4"/>
    <path id="Caminho_883" data-name="Caminho 883" d="M200.315,115.221a.345.345,0,0,1-.176-.052.332.332,0,0,1-.1-.449c.046-.065,4.191-6.97-4.445-16.27a.332.332,0,0,1,0-.462.325.325,0,0,1,.462,0c4.679,5.031,5.668,9.378,5.675,12.137a9.762,9.762,0,0,1-1.158,4.9A.325.325,0,0,1,200.315,115.221Z" transform="translate(-51.817 -14.074)" fill="#d1d3d4"/>
    <path id="Caminho_884" data-name="Caminho 884" d="M323.563,189.24H305a.325.325,0,0,1-.325-.325v-7.7a.325.325,0,0,1,.325-.325h18.567a.325.325,0,0,1,.325.325v7.7A.325.325,0,0,1,323.563,189.24Zm-18.222-.651h17.9v-7.048H305.321Z" transform="translate(-89.941 -43.057)" fill="#d1d3d4"/>
    <rect id="Retângulo_906" data-name="Retângulo 906" width="18.561" height="3.853" transform="translate(215.054 142.011)" fill="#d1d3d4"/>
    <path id="Caminho_885" data-name="Caminho 885" d="M323.563,191.307H305a.325.325,0,0,1-.325-.325v-3.846a.325.325,0,0,1,.325-.325h18.567a.325.325,0,0,1,.325.325v3.846A.325.325,0,0,1,323.563,191.307Zm-18.222-.651h17.9v-3.2H305.321Z" transform="translate(-89.941 -45.124)" fill="#d1d3d4"/>
  </g>
</svg>
